<svg fill="none" height="512" viewBox="0 0 512 512" width="512" xmlns="http://www.w3.org/2000/svg"><g fill="#f4acb7"><path clip-rule="evenodd" d="m241.313 44.4482c-.24.254-.733.4984-1.099.5423-.365.042-.949.2082-1.298.3667-.348.1585-.809.1737-1.024.0324-.214-.1432-.391-.0382-.391.2292 0 .2692-.109.3704-.245.2253-.134-.1432-.47-.0611-.743.1814-.276.2444-.501.3113-.501.147 0-.1623-.252-.0725-.557.1986-.308.2731-.56.3724-.56.2196 0-.1508-.264.0077-.588.3533-.323.3456-.743.527-.931.4029s-.343-.0496-.343.168c0 .3228-1.079.9224-1.86 1.0312-.104.0153-.522.338-.932.7199-.409.38-.856.6473-.99.59-.136-.0572-.614.3991-1.067 1.0121-.45.613-.899 1.0312-.993.93-.163-.1738-1.409 1.2068-3.5 3.8763-.493.6302-1.106 1.3787-1.361 1.6613-.256.2845-.467.6741-.467.8669 0 .1929-.341.7429-.758 1.2222-.418.4792-.661.8707-.539.8707.119 0-.224.6187-.763 1.3749-.54.7562-.883 1.5467-.762 1.7568.122.21.063.441-.132.5136-.316.1203-.769 1.7071-.858 3.019-.02.2731-.157.4965-.305.4965-.149 0-.279.4029-.288.8956-.018.9643-.293 2.8834-.413 2.8834-.424 0 .046 9.3815.534 10.6418.147.3839.168.9739.047 1.3138-.145.4029-.072.5194.209.3323.284-.1872.356-.0707.209.338-.123.3437-.111.7447.029.8936.139.1509.275.4354.3.6359.027.2005.089.4545.139.5652.052.1089.122.3323.156.4965s.355.886.713 1.6021c.359.718.536 1.5066.393 1.753-.17.294-.089.336.234.1222.361-.2387.427-.1433.248.357-.135.3743-.098.5844.084.466.301-.1986.463.0401.805 1.1705.064.2177.421.7448.791 1.1687s.672.9375.672 1.1419c0 .2062.755 1.0827 1.677 1.9496.922.8689 1.567 1.7682 1.433 2.0012-.136.233-.071.3094.141.17.213-.1413.883.3647 1.491 1.1247.606.7597 1.211 1.2637 1.346 1.1227.134-.143.243-.05.243.204 0 .256.25.464.557.464.308 0 .517.218.467.482-.052.265.282.509.741.542.46.034 1.507.537 2.327 1.117.82.579 1.492.957 1.492.838 0-.116.544.096 1.21.472.665.378 1.503.64 1.861.582.359-.057.652.048.652.235 0 .185.545.382 1.21.436.665.053 1.255.235 1.31.404.055.17.572.274 1.147.232.576-.044 2.174.045 3.552.198 1.379.153 2.594.124 2.702-.063.109-.187.72-.25 1.36-.143.641.107 1.353.029 1.583-.176.231-.204 1.017-.418 1.746-.475.731-.058 1.239-.258 1.132-.445-.109-.189.159-.222.595-.073.434.147.79.096.79-.114 0-.371 1.755-1.066 2.339-.926.159.038.652-.291 1.094-.732.609-.605.875-.68 1.101-.302.269.455.459.134.35-.595-.023-.165.166-.319.422-.346.255-.025.659-.069.895-.099.238-.029.794-.546 1.239-1.148.443-.601.968-1.094 1.167-1.094.198 0 1.304-1.0293 2.457-2.2877 1.153-1.2564 2.246-2.2379 2.432-2.1768.184.0592.229-.0745.1-.2998-.13-.2235-.048-.4068.181-.4068s.32-.1661.202-.3704.161-.6512.618-.9949c.459-.3437.672-.6301.472-.6359-.198-.0076-.038-.2768.361-.5976.397-.3208.602-.5844.456-.5844-.147 0-.007-.5366.311-1.1934.318-.655.734-1.1935.927-1.1935.195 0 .245-.2979.115-.6607-.174-.4812-.104-.5728.255-.3361.29.191.402.17.275-.0515-.119-.2082.183-1.6232.671-3.1451.489-1.5219.897-3.3493.906-4.0616.009-.7103.162-1.2927.343-1.2927.423 0 .043-9.773-.434-11.1384-.726-2.0775-1.816-5.4422-1.888-5.8241-.046-.2482-.999-1.94-2.118-3.756-1.116-1.8179-2.2-3.5842-2.403-3.9241-.206-.3399-.586-.7638-.846-.9414-.261-.1776-.373-.4946-.252-.7066.122-.21.059-.3341-.137-.273-.199.0592-.701-.3055-1.117-.8116-.417-.5079-.812-.8765-.878-.8211-.278.2311-3.238-2.3545-2.995-2.6141.147-.1566.1-.2349-.105-.1738-.59.1776-2.049-.4564-2.049-.8918 0-.2157-.168-.2826-.373-.147-.207.1375-.475-.0305-.599-.3704-.121-.3419-.359-.529-.527-.4182-.286.189-2.186-.5385-2.595-.9949-.104-.1127-.606-.254-1.117-.3113-.513-.0572-1.183-.2158-1.49-.3532-.663-.296-1.042-.3724-3.723-.7409-2.733-.3762-3.553-.3819-5.896-.044-1.351.1929-1.91.1509-1.748-.1317.32-.5538.079-.529-.459.0477zm110.493 34.4329c0 .4869-2.87 1.4245-3.361 1.0999-.202-.1337-.468.0362-.59.3761-.123.3418-.361.529-.531.4182-.168-.1126-.414-.0191-.545.2063-.13.2272-.393.3093-.584.1833-.19-.126-.347-.0497-.347.168 0 .2196-.34.3285-.754.2444-.486-.1012-.663.002-.497.2884.166.2902.041.3571-.363.1909-.341-.1394-.62-.0954-.62.0993 0 .443-3.71 1.816-4.468 1.6537-.307-.0649-.429.021-.271.191.377.4105-1.918 1.4283-2.467 1.0922-.234-.1432-.298-.1088-.141.0764.361.4239-1.902 1.4684-2.429 1.1209-.228-.1509-.28-.0688-.125.2005.256.4411-.429.6492-1.585.4793-.277-.0401-.402.0993-.281.3093.276.4755-.815.9624-1.354.6054-.252-.1662-.286-.0707-.093.2654.221.3819.136.4564-.315.2711-.339-.1394-.618-.0916-.618.1051 0 .3685-1.457 1.0292-1.955.8898-.154-.0439-.279.0936-.279.3055 0 .212-.279.2712-.62.1318-.417-.1719-.531-.1012-.351.2119.172.2979-.007.4641-.496.4641-.422 0-.767.1795-.767.3991 0 .2177-.127.3628-.281.3189-.153-.044-1.619.6473-3.256 1.5352-1.639.8861-3.211 1.5257-3.497 1.4188s-.413-.0152-.283.2082c.231.401-1.894 1.5772-2.486 1.3767-.168-.0573-.207.0669-.087.275.241.4163-1.171 1.0522-1.97.886-.277-.0592-.391.086-.257.3189.22.38-.249.5996-1.008.4717-.154-.0267-.279.1432-.279.3743 0 .231-.168.3112-.373.1756-.204-.1356-.372-.0267-.372.2406 0 .2693-.109.3724-.243.2292-.132-.1413-.44.0305-.681.3819-.241.3532-.845.6855-1.34.739-1.464.1586-1.514.1816-1.273.5976.127.218-.032.397-.35.397-.32 0-.581.189-.581.422 0 .231-.175.306-.39.163-.214-.142-.824.206-1.354.773-.956 1.022-1.328 1.191-2.295 1.05-.277-.04-.393.117-.257.35.134.235-.016.425-.336.425s-.581.167-.581.371c0 .368-1.605 1.085-1.752.781-.043-.086-.33.2-.639.638-.31.437-.569.655-.576.481-.005-.172-.379.051-.826.498-.448.447-1.034.812-1.302.812-.27 0-.49.134-.49.298-.002.401-3.119 2.486-3.719 2.486-.263 0-.874.458-1.358 1.018-.521.597-1.075.899-1.346.731-.256-.156-.338-.135-.182.046.355.418-1.596 1.825-2.086 1.503-.197-.132-.25-.05-.118.179.207.357-.761 1.07-1.21.888-.084-.032-.302.224-.484.573-.183.348-.556.632-.831.632-.276 0-.606.294-.735.653s-.339.541-.468.405c-.129-.138-.472.059-.763.439-.35.457-.447.489-.284.094.135-.329-.118-.149-.563.397-.445.548-.699.727-.565.399.136-.328-.143-.143-.618.412-1.244 1.456-3.512 3.168-4.191 3.168-.322 0-.542.209-.492.463.052.253-.293.567-.767.695-.471.129-.807.353-.743.496.139.321-1.719 1.927-2.23 1.927-.202 0-.474.294-.603.653-.128.359-.341.54-.471.401-.131-.14-.472.103-.758.538-.286.438-.649.795-.808.795-.161 0-1.029.737-1.934 1.64-.904.903-2.189 1.89-2.856 2.194-.664.304-1.21.649-1.21.77 0 .118.211.082.467-.082.316-.205.302-.085-.047.374-.28.37-.698.674-.931.676-.23.002-.813.538-1.297 1.191-.483.653-1.008 1.1-1.171.993-.161-.107-.393.084-.516.426-.124.346-.413.493-.654.334-.258-.17-.333-.112-.186.142.28.485-1.446 2.083-2.252 2.083-.291 0-.434.166-.316.37.223.384-.451 1.005-1.101 1.016-.204.002-.372.22-.372.483 0 .262-.209.701-.466.974-.256.273-.465.386-.465.248 0-.135-.944.808-2.096 2.101-1.153 1.291-2.247 2.249-2.429 2.129-.184-.122-.288.015-.231.304.056.286-.441.792-1.102 1.122-.664.331-1.303.915-1.423 1.297-.268.863-.91.917-.91.076 0-.341-.148-.523-.327-.404-.479.315-3.815-2.949-3.528-3.449.136-.233.079-.313-.127-.178-.205.136-.9-.391-1.547-1.17-.645-.779-1.173-1.31-1.173-1.182 0 .13-.414-.149-.918-.617-.506-.47-.815-1.033-.688-1.253.128-.219.046-.276-.179-.128-.229.151-.783-.265-1.246-.933-.457-.663-1.038-1.205-1.288-1.205s-.858-.491-1.35-1.094c-.491-.602-1.218-1.301-1.615-1.555-.397-.252-.679-.655-.627-.893.05-.241-.034-.396-.188-.348-.49.157-2.329-1.354-2.109-1.732.116-.2.057-.315-.129-.256-.454.147-6.046-4.541-5.84-4.896.089-.155-.263-.393-.781-.533-.572-.152-.842-.429-.685-.7.147-.254.093-.338-.125-.195-.211.139-.831-.191-1.379-.733-.549-.545-1.119-.988-1.267-.988-.149 0-.821-.538-1.493-1.193-.674-.657-1.34-1.194-1.483-1.194s-.713-.448-1.264-.994c-.552-.549-1.111-.995-1.242-.995-.529 0-1.983-1.509-1.737-1.801.147-.174.063-.191-.186-.038-.248.153-.791-.088-1.21-.533-.416-.447-.763-.676-.77-.512s-.341-.124-.745-.641c-.402-.518-.731-.825-.731-.688 0 .14-.418-.04-.928-.397-.511-.357-.82-.836-.688-1.065.14-.239.061-.296-.182-.136-.361.239-4.722-2.536-5.278-3.355-.101-.151-.564-.401-1.029-.556-.463-.154-.763-.418-.667-.584.097-.166-.03-.304-.282-.304-.506 0-3.721-2.148-3.916-2.618-.067-.164-.362-.298-.652-.298-.289 0-.527-.16-.527-.355s-.418-.468-.931-.605c-.511-.136-.931-.424-.931-.64 0-.214-.251-.389-.558-.389s-.559-.208-.559-.464-.104-.352-.233-.216c-.33.355-2.373-.838-2.373-1.386 0-.249-.111-.335-.248-.19-.265.285-3.176-1.382-4.406-2.5201-.409-.3781-1.212-.8078-1.783-.9529-.572-.1432-.94-.4335-.819-.6435.127-.2196-.05-.2711-.418-.1203-.431.1776-.552.1127-.374-.1986.175-.3017.068-.3781-.311-.2234-.336.1375-.577.0248-.577-.2692 0-.2788-.105-.3934-.236-.2559-.13.1394-.656-.0993-1.167-.529-.513-.4315-1.16-.7829-1.44-.7829-.279 0-.508-.21-.508-.464 0-.2559-.103-.3533-.232-.2158-.259.2769-3.178-1.2049-3.533-1.7949-.125-.2082-.376-.3648-.558-.3495-.661.0592-1.633-.422-1.633-.8077 0-.2158-.168-.2826-.374-.1471-.204.1337-.372.0439-.372-.2005s-.168-.3341-.371-.1986c-.206.1356-.374.1013-.374-.0782 0-.3285-2.107-1.4647-2.792-1.5067-.891-.0534-2.04-.6912-1.847-1.0254.116-.2005-.027-.2654-.319-.147-.293.1203-.811-.0821-1.154-.4488-.343-.3666-.722-.5633-.84-.4373-.12.1261-.74-.0649-1.378-.4277-.64-.3628-1.397-.7008-1.685-.7543-.286-.0515-.64-.2998-.787-.5518-.144-.2521-.371-.4431-.502-.424-.881.1242-1.365-.0248-1.17-.3609.13-.2253-.02-.2921-.351-.1546-.318.1298-.579.0764-.579-.1203 0-.1948-.354-.3838-.788-.4182-.434-.0363-1.46-.5366-2.277-1.1152-.818-.5786-1.363-.8383-1.213-.5767.152.2617-.136.1872-.638-.1642-.502-.3513-1.026-.5194-1.164-.3743-.137.1471-.248.065-.248-.1833 0-.2482-.252-.3494-.559-.2234-.308.126-.558.0306-.558-.2119 0-.2426-.127-.4049-.281-.3648-.725.1967-2.682-.5767-2.453-.97.155-.2693.032-.3457-.324-.1986-.314.1298-1.001-.0019-1.524-.2922-.522-.2902-1.046-.4258-1.164-.2998-.116.1241-.212.0631-.212-.1374 0-.9243-1.923-.4564-2.345.5709-.238.5786-.519 1.1419-.626 1.2527-.107.1088-.252.5556-.321.9948-.07.4373-.281.8555-.467.9281-.188.0725-.247.2979-.13.4965.116.2005.025.3647-.201.3647s-.377.2234-.334.4964c.125.8116-.468 2.6868-.85 2.6868-.195 0-.276.1355-.179.3017.095.1661-.088.9261-.406 1.6899-.32.7639-.625 1.6078-.677 1.8771-.27 1.3615-1.428 4.0864-1.737 4.0864-.193 0-.283.2253-.197.4984.141.4487-1.648 6.2155-2.246 7.2375-.134.231-.297.769-.36 1.195-.06.426-.362 1.071-.67 1.434-.332.393-.454.951-.3 1.379.177.492.122.63-.173.435-.263-.174-.361-.082-.254.233.211.611-.706 3.609-1.005 3.29-.112-.12-.2.103-.194.495.016 1.188-.549 3.298-.883 3.298-.174 0-.225.25-.115.555.109.306.018.676-.203.823-.222.147-.308.434-.19.638.118.203.018.371-.22.371-.239 0-.337.269-.219.599.119.331.026 1.09-.206 1.69-.232.602-.397 1.22-.366 1.377.03.155-.136.783-.37 1.392-.443 1.153-.606 1.703-.796 2.687-.062.322-.219.697-.346.834-.129.138-.145.5-.034.808.111.307.03.557-.177.557s-.29.359-.182.797c.116.475.01.794-.261.794-.252 0-.36.267-.242.598.118.328.058.596-.134.596-.193 0-.253.269-.135.597.118.329.087.909-.068 1.293-.156.382-.317.875-.356 1.094-.039.218-.118.577-.172.796-.227.906-.275 1.245-.33 2.311-.031.615-.19 1.029-.354.92-.164-.108-.34.459-.39 1.257-.05.8-.257 1.564-.459 1.697-.202.134-.266.524-.145.865.124.344.025 1.404-.22 2.357-.243.953-.523 2.358-.621 3.124-.101.766-.424 2.645-.723 4.178-.298 1.531-.593 3.321-.655 3.977-.063.657-.156 1.284-.208 1.393-.05.108-.073.332-.05.494s-.137 1.505-.357 2.983c-.22 1.48-.384 3.181-.365 3.783.034 1.075-.463 1.466-.901.708-.121-.21-.718-.277-1.324-.149-.607.13-1.102.073-1.102-.126 0-.198-.294-.382-.653-.407-.357-.023-1.027-.15-1.489-.282-2.037-.586-2.552-.716-3.157-.8-.354-.048-.747-.199-.874-.335-.127-.135-.467-.148-.758-.03-.29.12-.733.04-.987-.174-.253-.216-.754-.342-1.111-.279-.359.061-.653-.045-.653-.238 0-.191-.252-.247-.557-.121-.308.126-.853.086-1.212-.091-.611-.3-1.353-.443-3.3508-.646-.4593-.047-.8364-.181-.8364-.298 0-.118-.5451-.242-1.2099-.278-.6666-.037-2.0481-.174-3.0722-.306-1.024-.132-2.334-.231-2.9131-.223-.5772.007-.9597-.144-.8471-.336.1108-.193-.2323-.3-.7631-.237-.5308.061-2.6611-.052-4.736-.252-4.4465-.43-15.1784-.499-20.7133-.134-2.15.141-4.366.281-4.9236.308-.7971.04-.9866.221-.8865.847.0697.438-.193 2.765-.5826 5.171-.3896 2.408-.7774 5.003-.8596 5.769-.5415 5.015-.7203 6.808-1.0884 10.94-.0769.876-.2502 2.755-.3843 4.178-.3485 3.708-.3681 23.516-.025 27.05.1573 1.643.345 3.791.4147 4.774.2966 4.178.4593 5.826.6612 6.764.1197.546.3128 2.068.4307 3.382.118 1.312.2645 2.923.3235 3.58s.2341 1.507.3896 1.889c.1537.383.1912.943.084 1.245-.109.301-.0518.704.1269.895s.4075 1.241.5075 2.336c.1001 1.094.2056 1.989.2324 1.989.0286 0 .1072.268.1733.596.0679.329.2198 1.045.3396 1.593.5469 2.515 1.0133 5.041 1.0651 5.768.0304.438.1841.892.3414 1.011.1573.116.327.802.3789 1.522.0518.717.2144 1.386.361 1.483.1483.098.2037.537.1251.976-.0804.437.0036.699.1858.579.1823-.121.3271.099.3235.487-.0018.387.5129 2.316 1.1474 4.285.6326 1.968 1.1849 3.983 1.226 4.475.0411.493.2001.896.3538.896s.1841.267.0662.596c-.118.328-.0447.598.1626.598s.2824.385.168.857c-.143.582-.0751.768.2162.577.277-.184.3485-.065.2038.334-.1215.34-.0626.618.1322.618.3271 0 1.3511 2.809 1.394 3.825.0107.243.2073.691.4379.995.6237.821 2.7433 6.317 2.4395 6.325-.1448.003-.0429.156.2269.337.2699.184.529.583.5773.89.0464.306.2931.959.5469 1.452.252.492.3288.897.168.901-.1609.004-.1055.137.1233.298.5522.389 2.0981 3.672 1.7317 3.681-.1572.002-.1143.138.0948.298.5433.417 1.8265 2.634 1.3368 2.309-.2538-.166-.3235-.036-.1859.347.1215.338.3717.516.554.396.1841-.122.3592.013.3914.3.0304.286.0751.702.1001.926.0232.223.4218.811.8864 1.308.4647.496.7453 1.075.6237 1.285-.1215.21-.0446.384.1716.384.2181 0 .395.267.395.595 0 .329.1769.598.3949.598.2163 0 .2896.178.1645.397-.1269.22-.0894.397.0822.397.3592 0 1.7157 2.315 1.8318 3.126.0429.296.4289.8.8561 1.121.4289.321.6827.749.5647.953-.1179.204-.0572.371.1358.371.429 0 1.6782 1.974 1.6782 2.65 0 .269.1233.453.2734.411.3235-.092 4.0712 5.161 4.0712 5.709 0 .208.1769.38.395.38.2162 0 .2877.183.1572.407-.1286.225-.0393.359.2002.298.2377-.059.6273.242.865.67.2359.43.8078 1.113 1.2689 1.522.4593.407.8364.989.8364 1.295 0 .303.3395.748.756.985.4146.237.6398.63.5004.871-.1537.267-.084.326.1787.154.2502-.166.5379.017.6827.436.1376.397.5987 1.054 1.0222 1.46.4236.407.7238.913.6684 1.123-.0572.212.0465.287.2288.166.3592-.236 1.478.904 1.5209 1.553.0161.218.2377.405.4932.416.2556.01.4182.247.3628.527-.0572.279.0483.409.2342.287.1858-.123 1.4458 1.027 2.8023 2.556 1.355 1.53 2.464 2.645 2.466 2.481.002-.166.545.265 1.21.955 2.609 2.711 3.7 3.718 4.027 3.718.187 0 .55.359.806.796.255.437.666.794.911.794.247 0 .71.399 1.028.884.32.487.586.711.593.499.005-.214.32.007.697.491.379.483.777.781.888.662.113-.118.393.162.624.625.232.462.552.754.711.649s.826.332 1.482.972c.654.639 1.265 1.123 1.355 1.075.089-.048.505.225.924.609.418.382.936.695 1.15.695.215 0 .272.208.126.46-.163.283-.102.352.157.18.448-.296 3.181 1.468 2.838 1.833-.109.118.068.325.395.458.395.163.515.078.361-.25-.129-.271.005-.181.296.199.292.378.635.576.764.439.128-.138.337.044.466.401.129.359.372.561.538.452.166-.11.568.083.892.428.323.346.591.481.595.302.002-.18.164-.057.357.271.195.328.486.598.647.601.821.012 2.672 1.137 2.465 1.496-.138.235-.059.294.18.135.395-.261 2.22.728 2.715 1.472.125.188.336.327.466.308.765-.111.996.019.76.426-.159.273-.102.351.139.191.419-.275 4.638 1.651 4.862 2.219.069.175.278.215.466.093.188-.124.34-.006.34.262 0 .269.098.384.218.256.286-.306 2.434.496 2.237.834-.082.143.275.287.794.321.52.032 1.086.302 1.261.596s.322.366.324.158c.003-.208.207-.162.454.1.245.263.67.477.942.477.273 0 1.118.294 1.88.655.761.361 1.715.724 2.121.808.406.082.899.324 1.099.538.199.212.71.386 1.135.386s1.124.261 1.551.582c.429.321.885.47 1.014.332.13-.139.236-.032.236.237 0 .268.168.376.371.241.206-.136.583-.105.838.065.256.17.789.363 1.182.429.393.065.942.319 1.219.566.277.244.598.345.714.221.117-.124.908.044 1.759.373.853.328 1.968.677 2.481.777.511.097 1.181.292 1.488.431.738.333.694.321 2.511.678.871.17 1.677.476 1.795.678.118.204.359.275.534.159.177-.117.431-.023.565.208s.584.305 1.002.162c.424-.143.669-.096.551.105-.115.199.389.38 1.12.403s1.432.193 1.559.382c.127.187.733.357 1.347.376 1.096.036 8.768 1.617 9.867 2.034.308.116.894.246 1.303.288 1.848.189 4.87.726 5.169.917.18.116.85.267 1.49.336.638.068 1.662.206 2.277.307.615.099 2.116.292 3.337.428 1.22.134 2.309.374 2.419.531.111.156.703.315 1.318.351 3.442.201 6.744.582 8.294.957.967.235 2.513.477 3.435.538.92.061 2.177.248 2.791.416 1.076.295-.9-2.169-6.105-7.609-.489-.512-.77-.932-.622-.932.149 0-.246-.55-.877-1.224-.629-.674-1.146-1.4-1.146-1.615 0-.214-.141-.296-.312-.184-.445.294-2.738-2.329-2.393-2.736.157-.185.076-.206-.181-.05-.298.184-.597-.082-.831-.741-.202-.567-.62-1.134-.931-1.26-.309-.128-.563-.51-.563-.852 0-.341-.114-.5-.252-.351-.265.281-1.982-1.251-1.982-1.766 0-.164-.461-.812-1.024-1.438-.563-.628-1.24-1.491-1.503-1.921-.265-.43-.361-.512-.216-.183.182.41.016.364-.536-.153-.44-.413-.717-.892-.617-1.066.102-.175-.013-.447-.252-.605-.298-.197-.336-.113-.12.271.268.476.222.477-.316.012-.345-.3-.629-.716-.629-.927 0-.208-.711-1.098-1.582-1.974-.87-.878-1.331-1.478-1.024-1.333.308.145.097-.122-.468-.596-.565-.473-.928-1.027-.81-1.233.118-.205-.007-.323-.277-.264-.273.061-.438-.156-.37-.487.068-.328-.001-.46-.157-.294-.293.313-2.014-1.189-2.014-1.758 0-.178-.776-1.177-1.723-2.219-3.202-3.523-3.49-3.892-3.49-4.451 0-.308-.111-.442-.245-.298-.243.259-1.423-1.243-1.428-1.82 0-.164-.102-.254-.223-.199-.363.163-1.462-.958-1.268-1.294.099-.17-.409-.787-1.127-1.373-.72-.587-1.23-1.2-1.135-1.364.096-.166-.163-.555-.572-.869-.983-.75-4.777-5.411-4.055-4.98.307.182-.07-.24-.836-.939-.769-.701-1.398-1.597-1.398-1.994 0-.395-.334-.813-.742-.928-.409-.114-.859-.536-.999-.941-.141-.403-.564-.97-.94-1.259-.375-.288-.586-.691-.468-.895.118-.203.038-.371-.179-.371-.218 0-.395-.278-.395-.618 0-.342-.168-.51-.371-.375-.206.134-.374.01-.374-.278 0-.289-.348-.758-.776-1.043-.439-.294-.686-.766-.57-1.09.113-.315.027-.573-.194-.573-.379 0-1.852-1.734-1.836-2.166.004-.11-.407-.679-.915-1.264-.506-.584-.92-1.291-.92-1.567 0-.279-.133-.566-.293-.638-.161-.075-.697-.747-1.191-1.499-.493-.751-.656-1.207-.359-1.014.297.191-.005-.239-.672-.955-.665-.716-1.21-1.474-1.21-1.686 0-.21-.321-.754-.716-1.207-.397-.454-.619-1.098-.495-1.44.135-.38.067-.517-.176-.357-.375.248-1.033-.785-.906-1.424.032-.165-.107-.298-.312-.298-.206 0-.372-.269-.372-.596 0-.328-.186-.598-.413-.598s-.313-.277-.191-.616c.128-.356.066-.514-.145-.375-.338.222-.534-.324-.404-1.126.03-.182-.105-.224-.302-.094-.338.223-1.008-1.241-.854-1.866.041-.164-.066-.299-.238-.299-.275 0-1.321-2.007-1.197-2.301.025-.063-.22-.399-.547-.747-.325-.349-.501-.89-.39-1.201.113-.311.066-.476-.103-.363-.324.214-2.544-4.445-2.385-5.007.052-.179-.101-.326-.341-.326-.238 0-.331-.111-.204-.247.127-.135-.021-.515-.33-.845-.309-.333-.476-.848-.367-1.148.108-.3.024-.544-.187-.544s-.279-.18-.152-.399c.127-.218.084-.398-.097-.398-.178 0-.702-1.029-1.163-2.287-.463-1.259-1.008-2.618-1.214-3.023-.863-1.703-2.911-7.919-2.718-8.251.114-.201.054-.363-.138-.363-.273 0-1.091-2.364-1.41-4.077-.03-.164-.098-.387-.148-.496-.052-.111-.136-.378-.186-.598-.052-.22-.127-.443-.17-.496-.132-.178-.45-1.671-.5-2.359-.027-.366-.181-.58-.341-.473-.161.105-.318-.222-.349-.726-.055-.894-.136-1.4-.32-2.013-.05-.164-.132-.477-.182-.697-.052-.217-.127-.441-.168-.496s-.139-.369-.216-.697c-.077-.329-.472-1.938-.876-3.58-.745-3.023-1.16-5.103-1.314-6.585-.046-.448-.187-.994-.314-1.216-.129-.22-.181-.747-.116-1.172.064-.426-.043-.988-.238-1.249-.193-.26-.381-1.379-.416-2.486-.036-1.106-.149-2.011-.251-2.011-.177-.002-.398-1.516-.509-3.481-.029-.493-.17-.896-.316-.896-.145 0-.224-.983-.172-2.186.05-1.205-.012-2.189-.141-2.189-.259 0-.463-2.037-.483-4.85-.007-1.025-.13-1.787-.273-1.694-.145.096-.295-1.481-.334-3.504-.039-2.022-.1-5.136-.132-6.92-.034-1.785-.186-3.162-.34-3.061s-.279-3.763-.279-8.591c0-4.827.125-8.776.279-8.776s.3-1.386.325-3.082.066-4.572.093-6.389c.025-1.818.188-3.214.358-3.1.171.113.314-.548.316-1.468.004-.92.138-2.48.298-3.464.159-.985.279-2.373.263-3.084-.014-.71.113-1.293.284-1.293.172 0 .311-.402.313-.895 0-.821.334-3.281.445-3.281.027 0 .109-.628.182-1.394.074-.765.245-1.839.379-2.387.136-.546.302-1.352.37-1.789s.229-1.333.358-1.99c.13-.657.309-1.73.398-2.387.368-2.717 1.423-7.359 1.671-7.359.147 0 .181-.473.077-1.054-.141-.794-.068-.974.297-.733.311.206.393.162.227-.122-.329-.571.754-5.573 1.454-6.718.297-.483.454-1.119.347-1.415-.105-.294.077-1.333.406-2.309.33-.974.679-2.219.777-2.767.099-.546.327-1.05.51-1.119.18-.069.246-.351.148-.628-.1-.275.02-1.025.264-1.665.247-.64.515-1.598.597-2.129.083-.533.433-1.219.78-1.522.346-.304.419-.441.164-.302-.576.311-.579.153-.032-1.26.239-.617.47-1.255.513-1.419s.119-.388.169-.496c.145-.308.245-.69.553-2.084.161-.731.45-1.176.668-1.033.211.142.274.063.138-.172-.136-.233-.05-.932.191-1.552.513-1.323.479-1.22.849-2.62.159-.602.456-1.094.661-1.094.204 0 .275-.268.157-.596s-.034-.598.186-.598.311-.25.2-.557c-.259-.724.749-2.169 1.139-1.629.157.218.536.454.843.527.308.071.615.296.685.498.068.205.277.27.465.147.187-.124.341-.042.341.184 0 .225.279.294.618.154.451-.185.536-.11.315.273-.199.344-.159.432.112.251.442-.291 3.205 1.046 3.609 1.745.13.225.395.305.586.179.193-.128.613.052.936.396.322.343.738.523.928.399.188-.124.341-.036.341.195 0 .233.127.385.281.343.507-.143 1.953.523 1.953.902 0 .204.127.328.281.275.454-.153 2.698.956 2.698 1.336 0 .193.126.329.279.304.665-.113 1.149.095 1.946.834.469.432.996.692 1.175.573.178-.118.323-.025.323.206 0 .233.127.382.281.333.547-.178 5.254 2.639 5.038 3.013-.122.21-.041.263.178.118.22-.145.628-.038.905.237s.741.556 1.029.625c.29.068.76.425 1.044.796.364.473.447.496.275.074-.161-.399-.064-.366.29.094.291.38.638.573.772.431.132-.143.241-.051.241.205s.127.427.28.382c.458-.134 2.699 1.264 2.699 1.684 0 .212.34.387.756.387s.853.268.971.594c.117.327.35.504.516.394.166-.109.549.063.847.382.3.319.649.469.776.336.127-.136.23-.058.23.173 0 .232.419.533.931.671.512.137.93.426.93.639 0 .216.252.392.559.392.308 0 .558.177.558.397s.261.397.581.397c.359 0 .478.191.312.499-.146.273-.136.37.025.213.361-.345 2.433.751 2.433 1.288 0 .213.211.343.466.288.256-.054.425.118.377.384-.05.265.124.395.384.288.261-.107.805.124 1.207.512.402.387 1.186.956 1.742 1.264.556.305.921.712.81.905-.111.191-.063.321.105.29.794-.147 1.258.079 1.017.497-.15.259-.103.351.107.212.353-.231 3.507 1.944 3.777 2.604.068.168.336.304.597.304.259 0 .924.449 1.476.995.554.548 1.154.995 1.337.995.182 0 .593.397.911.884.32.487.586.71.593.496.006-.212.333.025.724.527.392.503.847.915 1.012.917.563.011 6.376 4.925 6.196 5.238-.1.172-.043.265.125.208.475-.161 2.724 1.759 2.506 2.137-.108.183.068.334.386.334.32 0 .58.179.58.397 0 .22.147.353.328.3.18-.056.761.347 1.29.893.529.549 1.658 1.622 2.509 2.387.851.766 2.177 2.021 2.947 2.786.772.766 2.012 1.895 2.758 2.51.745.614 1.254 1.29 1.133 1.502-.122.21-.007.335.254.273.262-.059.484.161.493.489.009.329.214.596.456.596.241 0 .743.304 1.117.676.373.372 1.349 1.325 2.167 2.118.951.92 1.319 1.516 1.021 1.646-.256.112-.379.355-.272.54s-.114.573-.493.861c-.379.289-.987 1.016-1.351 1.616-.367.603-.851.974-1.087.83-.234-.143-.309-.122-.168.046.256.304.045.672-1.372 2.393-.411.498-.94 1.241-1.176 1.654-.238.412-.628.699-.865.639-.24-.061-.329.075-.2.298.13.226.059.409-.158.409-.218 0-.395.233-.395.517 0 .287-.586 1.203-1.303 2.04-.716.836-1.302 1.669-1.302 1.848 0 .182-.293.504-.653.718-.357.214-.586.537-.507.716.08.18-.184.506-.588.728-.404.219-.672.597-.597.838.075.239-.356.999-.956 1.686-.603.69-.985 1.257-.853 1.264.134.008-.127.344-.579.747s-.716.844-.59.981c.129.136.038.249-.202.249-.237 0-.396.133-.352.298.126.464-2.746 4.873-3.175 4.873-.209 0-.281.107-.159.236.228.245-2.19 4.549-2.797 4.981-.19.133-.326.359-.304.502.078.517-1.123 2.635-1.496 2.635-.213 0-.286.174-.164.384.123.21-.118.748-.537 1.193-.416.445-.668.81-.559.81.111 0 .018.363-.204.808-.221.443-.575.693-.783.555-.209-.137-.334-.007-.28.289.139.769-.408 2.327-.819 2.327-.191 0-.312.134-.269.298.1.394-1.2 3.015-1.65 3.327-.195.133-.338.357-.32.496.098.795-.011 1.069-.341.852-.206-.136-.372-.05-.372.191 0 .46-.424.16-2.1-1.484-.502-.493-1.062-.896-1.242-.896-.181 0-.633-.412-1.006-.916-.374-.504-.983-1.039-1.355-1.19-.389-.158-.561-.469-.407-.737.169-.294.105-.355-.179-.168-.558.369-1.609-.512-1.283-1.073.139-.243.059-.296-.193-.13-.524.348-2.756-1.268-2.459-1.78.114-.198-.009-.273-.276-.164-.266.111-.938-.25-1.492-.8-.554-.548-1.192-.999-1.419-.999-.225 0-.306-.177-.179-.397.125-.219-.039-.397-.366-.397-.786 0-4.355-2.582-4.039-2.92.136-.145-.116-.263-.559-.263-.445 0-.808-.138-.808-.304 0-.168-.824-.722-1.83-1.233-1.006-.51-2.163-1.259-2.567-1.662-.405-.403-.838-.622-.961-.49-.125.133-.227.032-.227-.224 0-.254-.24-.464-.531-.464-.293 0-.795-.281-1.117-.624-.322-.344-.586-.502-.586-.352 0 .38-1.984-1.023-2.336-1.655-.159-.285-.534-.416-.835-.294-.302.124-.645-.052-.766-.39-.12-.336-.458-.515-.747-.395-.29.118-.527.017-.527-.225 0-.243-.252-.44-.56-.44-.307 0-.557-.21-.557-.464 0-.255-.106-.351-.236-.213-.129.137-2.097-.77-4.374-2.015-2.278-1.245-4.266-2.29-4.419-2.322-.154-.033-.458-.08-.674-.109-.218-.027-.275-.256-.129-.508.168-.29.102-.351-.18-.164-.247.16-.901-.029-1.455-.422s-1.174-.739-1.38-.77c-.203-.028-.591-.08-.859-.114-.268-.033-.372-.258-.233-.5.168-.291.008-.358-.479-.193-.453.154-1.086-.05-1.671-.541-.516-.433-1.022-.701-1.122-.594-.102.109-1.004-.194-2.005-.674-1.003-.479-1.946-.842-2.1-.805-.154.036-.281-.109-.281-.321s-.278-.271-.618-.132c-.415.17-.531.101-.354-.206.175-.302.066-.378-.314-.224-.318.132-.998-.051-1.505-.408l-.926-.648.055 1.896c.031 1.043-.066 5.074-.214 8.958-.323 8.467-.35 8.354 2.202 9.485 1.108.491 1.921 1.054 1.808 1.251-.114.196.018.324.295.284 1.015-.149 1.471.031 1.212.479-.159.275-.104.352.141.191.542-.357 5.313 2.175 5.029 2.668-.123.212-.043.265.179.12.461-.303 2.32.499 2.32 1.003 0 .183.125.29.279.239.409-.14 2.698.939 2.698 1.269 0 .157.211.292.467.304.854.038 4.384 2.356 4.098 2.692-.156.184-.086.212.153.067.24-.147.694.01 1.01.348s.636.563.711.5c.227-.189 2.871 1.438 2.871 1.768 0 .168.26.308.579.308s.479.175.353.393c-.13.225.02.292.351.155.318-.13.577-.058.577.16 0 .22.381.501.845.625.465.124 1.182.548 1.593.939.411.39 1.367 1.05 2.123 1.463.756.414 1.287.907 1.178 1.094-.109.189.148.342.57.342.421 0 .766.135.766.3 0 .166.503.54 1.119.83.615.292 1.024.693.908.894-.114.198-.032.386.184.412.218.027.604.081.86.119.257.036.418.305.357.596-.066.318.106.439.436.303.3-.122.958.187 1.464.688.506.502 1.19 1.021 1.519 1.157.329.135.599.429.599.655 0 .227.261.41.581.41.345 0 .471.187.314.46-.146.253-.104.352.095.222.488-.323 2.441 1.083 2.085 1.501-.155.183-.091.216.145.071.236-.144.942.252 1.569.878.629.628 1.228 1.048 1.334.938.103-.113.294.089.425.448.129.361.431.655.67.655.24 0 .677.357.974.795.295.439.742.796.994.796s.591.227.756.506c.164.279.768.829 1.346 1.22.575.392 1.706 1.438 2.512 2.326s1.466 1.48 1.466 1.318c0-.163.25-.075.554.196.305.269.447.678.314.905-.13.228-.064.3.15.159.213-.141 1.037.412 1.83 1.231.794.818 1.907 1.809 2.474 2.202.579.399.919.907.776 1.155-.149.256-.088.331.144.178.22-.145.755.218 1.189.808.434.588 1.367 1.491 2.075 2.003.706.514 1.244 1.144 1.195 1.401-.05.256.099.476.331.485.652.029 9.041 9.101 8.8 9.518-.118.204-.036.252.182.108.218-.145.905.476 1.525 1.375.62.902 1.474 1.898 1.899 2.217.428.319.676.751.556.961-.121.208-.007.33.256.271.261-.061.482.111.493.38.009.269.397.773.86 1.121.464.347.732.827.595 1.063-.14.241-.079.319.137.176.213-.139.596.012.848.336.253.327.328.594.168.594-.159 0 .319.558 1.067 1.239.747.682 1.267 1.4 1.154 1.595s.036.452.332.575c.297.12 1.096.97 1.779 1.886.709.955.927 1.436.509 1.125-.402-.298-.168 0 .52.663.786.756 1.146 1.388.967 1.697-.179.308-.132.392.125.222.475-.315 3.428 3.76 3.428 4.73 0 .349.168.525.373.391.204-.135.372.033.372.374 0 .34.139.619.309.619s.547.493.838 1.094c.29.602.78 1.312 1.087 1.579.307.268.427.491.265.497-.161.008.042.399.452.869.411.471.659 1.008.552 1.193s-.036.338.163.338c.196 0 .706.583 1.131 1.293.427.71.779 1.058.781.771.003-.29.196-.395.438-.236.25.166.329.11.186-.134-.133-.231.252-.983.854-1.673.602-.689 1.124-1.379 1.16-1.533.144-.63.99-1.652 1.219-1.469.135.107.168.083.071-.055-.238-.348 2.005-3.628 2.667-3.899.293-.121.434-.392.314-.6-.121-.21.123-.578.545-.819.42-.241.674-.596.563-.789-.113-.193.111-.586.497-.874.386-.289.681-.619.658-.734-.045-.215.538-1.025 1.819-2.532.409-.481.813-1.046.895-1.256.456-1.142 3.181-4.556 3.639-4.556.306 0 .424-.195.275-.453-.15-.256.252-.932.93-1.564.655-.613 1.174-1.224 1.15-1.359-.041-.243.599-1.072 2.792-3.607.613-.711 1.31-1.624 1.548-2.028.236-.405.625-.686.865-.627.239.061.339-.053.225-.254-.243-.418.659-1.336 1.026-1.044.134.107.162.076.061-.067-.101-.145.779-1.297 1.955-2.559 1.176-1.264 2.327-2.534 2.557-2.822.854-1.069 4.427-4.497 4.561-4.377.077.069.329-.275.559-.76.229-.487.699-.928 1.044-.981.688-.105 1.194.846.808 1.514-.156.267-.066.306.243.101.364-.24.434-.103.279.535-.116.473-.086.859.068.859.309 0 1.265 2.863 1.265 3.787 0 .324.157.588.35.588s.256.263.141.584c-.116.321-.069.678.104.793.299.196 1.939 6.095 2.055 7.382.029.332.172.81.317 1.058.144.25.16.739.035 1.088-.128.356-.037.632.208.632.237 0 .325.188.193.415-.133.229-.074.632.128.895.319.415.529 1.324.989 4.261.052.328.218.908.371 1.292.152.382.177.974.056 1.314-.127.353-.065.514.146.374.672-.445.379.596-.357 1.27-.4.367-.64.814-.536.995.105.181-.07.435-.388.567-.32.13-.491.392-.382.579.107.189-.145.706-.562 1.151-.416.447-.716.879-.664.961.218.349-5.875 9.316-6.189 9.106-.193-.126-.238-.036-.102.199s.026.664-.243.957c-.27.29-.601.842-.737 1.224-.136.383-.407.697-.606.697-.196 0-.462.355-.591.786-.129.434-.434.747-.677.697-.243-.049-.394.222-.335.606.061.382-.044.695-.236.695-.189 0-.436.376-.548.836-.131.531-.37.726-.66.535-.291-.191-.359-.134-.189.158.146.254.087.46-.129.46s-.395.275-.395.61c0 .336-.234.704-.522.823-.286.118-.609.578-.718 1.021-.125.512-.365.699-.654.508-.27-.177-.358-.134-.218.109.13.225-.179.89-.686 1.474-.508.586-.924 1.222-.924 1.415 0 .191-.63.92-1.396 1.619-.769.701-1.146 1.127-.838.948.48-.279.488-.232.05.343-.279.369-.681.554-.894.413-.214-.14-.279-.067-.146.164.134.229-.269 1.002-.892 1.715-.624.714-1.301 1.632-1.507 2.041-.209.42-.566.624-.818.47-.247-.151-.327-.132-.181.042.318.376-2.568 3.989-3.188 3.989-.236 0-.429.267-.429.596 0 .328-.252.597-.56.597-.307 0-.557.189-.557.42 0 .571-8.377 9.552-8.791 9.426-.182-.056-.29.095-.238.336.05.239-.225.642-.613.894-.388.254-1.235 1.065-1.884 1.804-1.576 1.795-1.921 1.631-6.476-3.076-2.079-2.147-3.78-3.806-3.78-3.688 0 .121-.627-.559-1.396-1.51-.768-.949-2.271-2.624-3.34-3.72s-1.855-2.148-1.746-2.335-.065-.342-.384-.342-.579-.183-.579-.409c0-.225-.594-.966-1.316-1.644-.724-.679-1.235-1.323-1.133-1.43.1-.107-.397-.743-1.104-1.413-.71-.668-1.289-1.572-1.289-2.005 0-.435-.111-.67-.248-.523-.327.349-1.612-.905-1.612-1.574 0-.286-.336-.712-.746-.947-.409-.235-.745-.693-.745-1.021 0-.327-.25-.697-.557-.823-.308-.126-.56-.359-.56-.52 0-.158-.665-1.06-1.48-2.001-.813-.941-1.394-1.858-1.292-2.036.104-.177-.166-.525-.6-.771-.433-.248-.695-.548-.585-.666.111-.119-.168-.547-.62-.95-.452-.402-.657-.738-.459-.746.2-.008-.011-.292-.465-.632-.455-.342-.827-.879-.827-1.194 0-.317-.149-.574-.331-.574-.18 0-.616-.47-.968-1.043-.437-.712-.479-.955-.136-.762.277.155.166-.046-.249-.449-1.253-1.22-2.296-2.694-1.667-2.36.307.162.223.008-.186-.347-.411-.354-.745-.822-.745-1.039 0-.216-.179-.521-.397-.678-.524-.374-2.868-4.064-2.582-4.064.121 0-.206-.456-.728-1.012-.522-.557-.947-1.273-.947-1.592 0-.317-.179-.579-.395-.579s-.291-.177-.164-.397c.126-.22.053-.397-.165-.397-.216 0-.393-.254-.393-.563 0-.312-.182-.631-.406-.709-.459-.164-.564-2.71-.187-4.497.139-.657.255-1.507.259-1.89.003-.382.175-.695.379-.695.203 0 .266-.182.137-.405-.277-.478.556-4.717.981-4.998.161-.106.199-.456.083-.777-.115-.32-.045-.584.155-.584.944 0-.195-2.41-1.68-3.556-.87-.672-1.54-1.355-1.49-1.518.052-.164-.075-.355-.279-.424-.697-.24-1.659-1.371-1.458-1.716.109-.189-.129-.344-.529-.344-.401 0-1.246-.63-1.877-1.4-.633-.767-1.278-1.439-1.435-1.491s-.245-.227-.193-.391c.052-.165-.032-.26-.186-.214-.567.172-1.968-.934-1.721-1.36.147-.256.084-.326-.154-.17-.223.147-.557-.021-.743-.372-.184-.354-.488-.671-.674-.705s-.293-.242-.236-.462c.056-.218-.225.046-.624.588-.398.541-.718 1.079-.709 1.194.009.114-.018.298-.059.406-.041.109-.152.699-.245 1.308-.095.611-.357 1.595-.588 2.189-.229.594-.379 1.319-.332 1.615.046.296-.093.42-.311.277-.24-.158-.368.099-.331.657.084 1.184-.792 5.032-1.206 5.307-.175.114-.225.473-.109.794.114.321.082.897-.074 1.279-.155.384-.307.877-.337 1.095-.306 2.272-.713 4.451-.892 4.773-.218.392-.259.575-.592 2.586-.091.548-.273 1.621-.407 2.387-.132.766-.236 1.711-.231 2.098.006.388-.162.59-.375.449-.261-.172-.257.004.009.535.218.435.29.905.161 1.042-.129.14-.022.252.239.252.276 0 .381.258.252.617-.127.355-.064.514.147.375.33-.218.529.307.413 1.098-.025.164.132.297.35.297.216 0 .297.168.177.375-.118.204.082.557.445.783.361.225.527.416.364.422-.16.005.056.41.481.899.426.487.869 1.293.985 1.789.116.499.372.903.567.903.194 0 .25.18.123.4-.127.217-.084.397.096.397.376 0 2.165 3.233 2.038 3.679-.049.165.085.298.295.298.209 0 .584.493.834 1.094.25.602.722 1.412 1.049 1.797.327.388.831 1.194 1.121 1.791.288.598.775 1.305 1.083 1.572.307.267.4.491.207.497-.191.007-.025.276.374.597.396.321.604.59.461.596-.145.008.146.483.645 1.058.497.575.815 1.201.704 1.392s-.037.347.161.347c.556 0 2.666 3.25 2.404 3.703-.131.225-.045.277.198.115.238-.155.431-.079.431.173s.377.814.838 1.247c.461.436.586.674.279.533-.308-.143-.099.126.464.6.565.471 1.024 1.035 1.024 1.25 0 .216.211.642.467.948.575.685.938 1.14 4.098 5.14 4.007 5.074 5.528 6.874 7.81 9.24 1.172 1.219 2.026 2.399 1.896 2.624s-.066.296.143.159c.474-.312 1.703 1.075 1.319 1.485-.154.166-.029.241.279.168.337-.08.509.101.434.464-.068.329.012.451.179.273.166-.179 1.646 1.098 3.288 2.836 4.8 5.083 6.9 7.151 7.512 7.401.314.128.659.59.764 1.024.106.433.326.703.487.596.159-.105.834.349 1.497 1.012.663.662 1.687 1.569 2.277 2.018.588.447.958 1.006.82 1.241-.148.26-.073.315.193.14.26-.172.88.212 1.511.931.588.675 1.211 1.226 1.385 1.23.175.002 1.133.808 2.128 1.79 2.223 2.19 1.83 2.222 4.808-.402 1.365-1.204 2.614-2.188 2.775-2.188s.513-.376.781-.834c.268-.461.583-.734.701-.608.116.125.688-.349 1.27-1.056.583-.704 1.062-1.176 1.065-1.046.004.132.687-.454 1.518-1.3.833-.846 1.674-1.431 1.871-1.301.198.13.313-.002.256-.29-.056-.29.119-.477.391-.418.272.061.398-.054.284-.254-.116-.199.039-.583.343-.854.306-.271.556-.353.556-.183s.352-.122.785-.647c.432-.526.947-.907 1.143-.846.199.059.267-.054.15-.254-.114-.199.042-.585.345-.854.306-.271.554-.376.554-.235 0 .142.923-.777 2.05-2.039 1.128-1.264 2.184-2.297 2.349-2.297.4 0 8.353-8.635 9.152-9.938.352-.57.815-.907 1.045-.756.242.161.309.094.163-.16-.14-.241.411-1.005 1.238-1.713.819-.705 1.578-1.566 1.687-1.915.109-.35 1.235-1.799 2.501-3.222 1.265-1.422 2.311-2.688 2.321-2.812.045-.489 1.25-1.511 1.485-1.259.138.147.147-.019.022-.368-.145-.405.114-.925.713-1.427.516-.435.854-.884.747-.997-.105-.114.229-.561.745-.994.515-.434.835-.898.712-1.032-.126-.133.048-.355.384-.492.336-.138.611-.407.611-.596 0-.512 2.33-3.947 2.679-3.947.164 0 .3-.279.3-.619 0-.342.168-.51.372-.374.205.134.393.055.42-.176.093-.848.166-1.042.867-2.289.391-.699.874-1.165 1.074-1.033.198.132.264.072.146-.132-.291-.504 2.15-4.581 2.526-4.218.164.158.187.08.05-.176-.136-.256.003-.737.312-1.065.31-.331.563-.781.563-.999 0-.22.293-.712.651-1.094.359-.384.674-.844.699-1.024.025-.179.068-.471.093-.649s.387-.714.806-1.193c.416-.48.664-.871.548-.871-.232 0 .89-2.469 1.267-2.784.131-.111.553-.961.935-1.891.384-.93.829-1.69.988-1.69s.147-.538-.03-1.193c-.177-.657-.227-1.194-.114-1.194.112 0 .039-.225-.163-.498-.306-.411-1.14-4.35-1.412-6.662-.037-.329-.182-.879-.322-1.221-.137-.343-.286-1.149-.33-1.791-.043-.641-.213-1.272-.377-1.401-.163-.128-.331-.89-.372-1.69s-.218-1.457-.393-1.457c-.177 0-.224-.268-.106-.596.118-.329.024-.598-.209-.598-.232 0-.311-.116-.177-.261.134-.144.056-.506-.177-.804-.232-.3-.321-.653-.198-.785s-.032-.77-.347-1.419c-.312-.647-.475-1.44-.361-1.759.116-.326.047-.475-.159-.339-.202.133-.368-.06-.368-.428 0-.371-.415-1.902-.922-3.405-.508-1.505-.801-2.736-.652-2.74.15-.004.062-.147-.193-.321-.254-.172-.501-.796-.546-1.386-.046-.588-.201-1.071-.344-1.071-.256 0-.81-2.116-.69-2.634.032-.145-.118-.378-.334-.521-.219-.143-.451-.611-.517-1.041-.066-.427-.327-1.18-.581-1.673-.252-.492-.336-.895-.186-.895s.072-.214-.173-.477c-.247-.262-.447-.799-.447-1.194 0-.393-.161-.716-.355-.716-.195 0-.467-.628-.601-1.396s-.397-1.497-.581-1.619c-.186-.122-.241-.388-.123-.592s.057-.371-.134-.371c-.336 0-1.046-1.556-1.265-2.774-.058-.325-.324-.838-.592-1.146-.268-.307-.399-.804-.291-1.104.107-.299.059-.546-.109-.546-.347 0-1.768-3.206-1.627-3.672.052-.168-.057-.305-.239-.305s-.433-.277-.554-.617c-.15-.416-.072-.525.239-.334.254.156.084-.161-.377-.701-.461-.542-.838-1.287-.838-1.656 0-.368-.134-.67-.3-.67-.336 0-1.77-3.212-1.643-3.68.045-.164-.096-.299-.312-.299-.217 0-.292-.178-.165-.398.127-.219.079-.397-.107-.397-.338 0-1.587-2.627-1.608-3.382-.008-.219-.256-.544-.553-.721-.296-.178-.443-.491-.323-.695.118-.207.05-.375-.154-.375-.309 0-.897-1.296-.902-1.987 0-.111-.238-.384-.526-.61-.288-.223-.579-.672-.649-.993-.33-1.523-.686-2.352-.936-2.186-.223.147-1.081-1.365-1.237-2.179-.019-.111-.346-.554-.724-.987-.378-.434-.782-1.194-.899-1.69-.116-.498-.361-.903-.545-.903-.182 0-.33-.247-.33-.548 0-.302-.25-.77-.556-1.041-.304-.269-.461-.649-.35-.844.112-.195.025-.353-.193-.353-.388 0-2.806-3.865-2.81-4.49 0-.171-.252-.483-.559-.689-.308-.208-.392-.386-.186-.397.204-.01.046-.281-.352-.602-.397-.322-.586-.584-.42-.584s-.197-.544-.804-1.209c-.61-.664-1.341-1.688-1.627-2.276-.287-.586-.793-1.363-1.126-1.724-.334-.363-.682-.905-.777-1.207-.139-.439-.282-.449-.733-.053-.307.273-.697.362-.865.2s-.196-.092-.062.157c.293.548-.626 1.451-1.055 1.037-.168-.163-.202-.102-.075.135.286.539-2.841 3.878-3.235 3.456-.159-.168-.232-.038-.164.291.068.328-.086.551-.341.496-.256-.055-.465.115-.465.376 0 .262-.491 1.024-1.09 1.692-3.633 4.052-5.128 6.101-3.814 5.234.288-.189 2.876 3.223 2.833 3.737-.009.111.329.527.749.926s.512.609.205.468c-.365-.17-.332-.061.093.311.357.315.651.766.651 1.005s.225.576.5.752c.765.487 1.773 2.334 1.456 2.67-.155.166-.037.24.261.168.297-.073.549.135.558.464.009.328.479 1.115 1.042 1.749s1.024 1.489 1.024 1.902c0 .412.236.848.525.966.581.237 5.53 8.811 5.546 9.605.005.273.159.496.341.496.184 0 .229.18.104.4-.127.217-.043.397.186.397s.313.179.186.397c-.127.22-.084.399.094.399.531 0 2.024 3.137 1.732 3.64-.159.275-.103.353.136.194.429-.282 1.044 1.167.878 2.072-.054.296.08.42.3.275.218-.143.409-.116.425.061.016.176.091.68.168 1.117.145.82-2.296 3.915-2.816 3.571-.145-.095-.571.26-.942.789-.372.529-.839.857-1.035.727-.198-.131-.25-.051-.12.178.299.516-.638 1.402-1.056.997-.166-.162-.195-.092-.063.158.294.548-.625 1.452-1.054 1.035-.166-.162-.204-.105-.08.128.289.543-6.197 7.446-6.613 7.043-.172-.168-.204-.102-.071.149.293.548-.626 1.451-1.055 1.035-.166-.163-.189-.083-.05.177.139.262.039.619-.22.796-.261.178-1.002.982-1.649 1.786-.645.806-1.287 1.342-1.426 1.193-.14-.147-.197-.088-.129.132.182.59-2.733 4.178-3.162 3.896-.202-.134-.257-.056-.125.173.133.229-.177.707-.684 1.064-.51.357-.885.869-.835 1.138s-.132.439-.402.38c-.272-.061-.395.061-.273.271.121.208-.118.632-.529.942-.411.307-.649.664-.529.794.121.13-.131.47-.56.756-.43.287-.781.682-.781.877 0 .196-.409.761-.911 1.258l-.91.901-.597-.855c-.327-.472-.477-.588-.332-.26.37.84.145.581-2.424-2.784-1.251-1.642-2.693-3.433-3.204-3.983-.513-.55-.931-1.11-.931-1.245 0-.138-.627-.944-1.396-1.793-2.009-2.223-3.035-3.619-2.856-3.886.086-.128.047-.145-.087-.037-.394.314-1.26-.643-.998-1.098.133-.227.07-.301-.139-.164-.486.321-3.008-2.57-2.806-3.217.084-.27-.104-.491-.418-.491-.315 0-1.112-.716-1.769-1.591-.658-.874-1.43-1.59-1.716-1.59-.297 0-.404-.197-.252-.461.154-.265.104-.351-.118-.206-.211.14-1.578-1.083-3.036-2.719-1.459-1.635-2.653-2.862-2.653-2.729 0 .134-.25.023-.554-.248-.305-.269-.446-.678-.314-.905.13-.227.068-.302-.141-.164-.209.139-.631-.058-.939-.436-.596-.731-.739-2.079-.223-2.079.17 0 .291-.134.27-.298-.102-.749.536-2.053.89-1.82.23.151.313.027.198-.304-.107-.309.113-1.098.49-1.754.377-.657.865-1.643 1.085-2.189.934-2.316 3.122-5.908 3.463-5.683.22.146.272-.03.127-.433-.15-.418-.034-.764.306-.903.304-.124.463-.378.354-.567-.109-.188.184-.749.65-1.249.468-.499.81-1.098.76-1.331-.052-.233.243-.81.652-1.28.409-.469.745-1.04.745-1.267 0-.228.168-.415.372-.415.206 0 .374-.269.374-.596 0-.328.126-.597.28-.597.156 0 .504-.539.778-1.196.277-.67.67-1.08.893-.933.224.148.29.076.15-.165-.136-.235.006-.697.315-1.027s.561-.75.561-.932c0-.181.461-.861 1.024-1.51.563-.65 1.024-1.295 1.024-1.434 0-.466 4.021-6.329 4.339-6.329.174 0 .315-.187.315-.416 0-.701 3.042-4.762 3.394-4.529.18.12.33-.061.33-.403 0-.34.177-.619.393-.619.219 0 .295-.174.172-.386-.121-.212.12-.613.538-.891.416-.279.758-.728.758-.997 0-.271.42-.787.931-1.144.513-.359.931-.888.931-1.174 0-.287.629-1.095 1.396-1.795.768-.699 1.145-1.146.838-.995-.307.153.07-.317.838-1.043.767-.727 1.396-1.518 1.396-1.758 0-.652 1.317-1.799 1.673-1.456.17.167.205.109.082-.126-.229-.427.518-1.287 1.825-2.098.511-.317.552-.437.15-.447-.304-.006 1.276-1.973 3.512-4.367 2.233-2.395 4.203-4.262 4.376-4.148.174.115.268-.002.213-.257-.057-.254.225-.671.627-.925.401-.252 1.049-.872 1.439-1.376.39-.503.795-.823.902-.709.106.113.519-.237.917-.779.399-.542.885-.88 1.078-.752s.306-.006.248-.294c-.055-.291.104-.485.352-.432.251.052.637-.265.858-.708.22-.441.586-.68.813-.531.226.149.31.095.185-.119-.208-.361 2.948-3.511 3.517-3.511.137 0 .613-.493 1.056-1.094.441-.602 1.004-1.095 1.247-1.095s.651-.357.906-.796c.256-.437.808-.794 1.228-.794.424 0 .66-.182.529-.407-.128-.222.324-.663 1.003-.978.681-.315 1.079-.58.886-.59-.193-.007-.027-.267.368-.576.395-.31.835-.485.976-.392.141.094.379-.04.527-.296.184-.319.104-.359-.253-.128-.447.289-.449.239-.004-.347.284-.375.584-.611.663-.525.081.086.661-.358 1.29-.986.63-.628 1.471-1.142 1.872-1.142.398 0 .629-.17.507-.378-.266-.462 1.089-1.298 1.46-.899.147.155.211.03.143-.279-.071-.319.275-.687.806-.855.511-.161.772-.312.576-.333-.195-.023.543-.712 1.64-1.531 1.098-.821 2.095-1.472 2.216-1.446.122.025.444-.292.714-.702.269-.413.647-.648.838-.522.189.126.346.04.346-.191 0-.233.251-.422.558-.422s.559-.154.559-.345c0-.189.688-.833 1.532-1.429.842-.595 1.405-.842 1.247-.55-.155.295.084.132.531-.36.449-.493.976-.919 1.173-.946.196-.026.511-.072.698-.099.188-.027.481-.214.653-.412.182-.212.08-.239-.249-.065-.307.164-.139-.073.372-.525.511-.453 1.178-.728 1.478-.612.3.119.425.084.277-.074-.3-.323 2.633-2.534 3.365-2.538.256 0 .465-.174.465-.385 0-.212.279-.272.62-.132.452.185.536.111.311-.279-.227-.393-.141-.464.331-.271.35.143.547.101.434-.094-.277-.477 2.35-2.102 2.858-1.766.225.147.295.08.161-.153-.231-.397.741-1.096 1.335-.962.153.034.28-.126.28-.359 0-.231.166-.31.372-.174.205.134.372.084.372-.113 0-.546 3.465-2.404 4.055-2.175.284.111.416.029.295-.183-.299-.514 2.602-2.232 3.152-1.869.241.158.333.112.207-.105-.257-.443 3.01-2.317 3.777-2.166.277.056.4-.078.275-.296-.216-.374 1.137-1.1 1.735-.93.154.042.281-.12.281-.363 0-.24.259-.332.577-.202s.488.08.377-.111.258-.529.819-.754c.561-.223 1.354-.54 1.764-.705.409-.166.87-.271 1.024-.236.153.034.279-.088.279-.272 0-.502 1.858-1.306 2.319-1.002.24.158.293.08.136-.193-.238-.411.207-.638.988-.506.154.025.279-.094.279-.267 0-.172.363-.342.804-.378.444-.035.905-.228 1.024-.426.351-.577 2.522-1.662 2.78-1.387.128.138.234.031.234-.238 0-.268.185-.365.412-.214.229.151.556.03.728-.267.229-.396.473-.134.901.96.323.827.473 1.701.332 1.944-.141.244-.088.332.12.195.386-.256 1.396 2.576 1.353 3.796-.015.378.148.571.361.431.237-.156.295 0 .148.407-.13.367-.057.663.168.663.227 0 .314.365.198.834-.112.459-.094.718.04.575.311-.332 1.992 4.94 1.724 5.406-.111.189-.012.346.217.346.228 0 .319.166.201.37-.117.202-.032.489.19.636.221.147.32.5.218.785-.102.284-.072.639.068.788.139.149.273.436.3.636.025.201.088.455.139.564.051.108.129.332.172.496s.188.567.322.896c.132.328.302.954.377 1.392.073.437.257 1.1.409 1.472s.15.894-.002 1.157c-.175.302-.119.374.154.193.263-.174.433-.006.434.437.004.396.24 1.434.526 2.311.386 1.188.407 1.663.086 1.883-.31.21-.294.294.057.297.268.004.384.186.257.405-.127.22-.034.397.204.397.239 0 .339.264.225.585-.116.321-.068.678.104.792.173.113.418.791.543 1.503.127.714.327 1.745.445 2.293.461 2.145.597 3.017.6 3.879.004.492.12.895.26.895.246 0 .432.905.543 2.647.03.472.184.771.343.668.157-.105.266.315.243.932-.023.619.079 1.572.225 2.118.149.546.247 1.587.22 2.312-.027.724.098 1.22.279 1.102.343-.227.847 2.883.881 5.436.011.822.163 1.494.334 1.494.174 0 .306.403.295.893-.018.89.03 1.289.754 6.268.486 3.343.501 3.181-.309 3.181-.384 0-.89.246-1.124.548-.413.531-3.667 1.711-4.227 1.531-.153-.049-.279.069-.279.264s-.21.345-.466.336c-1.128-.046-1.871.128-1.635.38.211.227-3.482 1.974-4.786 2.267-.206.045-.754.307-1.219.58s-1.01.388-1.21.256c-.2-.134-.365-.063-.365.153 0 .334-.85.802-1.955 1.075-.153.038-.404.112-.557.166-.154.053-.406.076-.56.05-.153-.025-.279.143-.279.374 0 .233-.168.311-.371.175-.206-.135-.374-.074-.374.132 0 .333-1.803 1.041-2.191.861-.08-.036-.248.104-.373.31-.435.72-2.647 1.737-2.647 1.218 0-.265-.342-.09-.76.388-.677.777-.936.909-1.674.857-.109-.008-.458.262-.774.6-.317.338-.729.513-.919.389-.187-.124-.341-.065-.341.134 0 .397-2.978 1.934-3.437 1.776-.157-.056-.288.109-.288.365 0 .253-.103.353-.23.217-.127-.135-.476.015-.774.334-.3.321-.699.482-.886.356-.188-.125-.344-.067-.344.126 0 .389-3.376 2.312-3.815 2.171-.154-.048-.279.101-.279.332 0 .233-.168.311-.374.176-.203-.136-.371-.061-.371.166 0 .225-.502.687-1.117 1.027s-1.117.489-1.117.334c0-.156-.342.107-.76.587-.416.477-.92.87-1.117.87-.672 0-.917.121-1.288.634-.204.283-.604.569-.889.636-.282.067-.94.529-1.46 1.027-.52.497-1.335 1.009-1.81 1.137-.477.128-.867.38-.867.561 0 .355-1.485.991-1.984.848-.168-.05-.214.069-.103.261.112.193-.42.692-1.182 1.104-.763.415-1.442.888-1.51 1.052-.068.165-.361.298-.652.298-.29 0-.527.184-.527.407s-.46.622-1.024.886c-.563.265-1.157.708-1.321.987-.164.277-.468.504-.679.504-.209 0-.633.271-.942.602-.309.33-.715.498-.904.374-.59-.389-.374.216.389 1.09.402.463.644.992.537 1.179-.108.185-.029.336.175.336.37 0 1.002 1.529.865 2.089-.041.164.103.298.32.298.218 0 .291.179.164.399-.127.217-.043.397.186.397s.322.164.205.365c-.114.198-.06.424.12.496.181.073.929 1.438 1.664 3.032.734 1.595 1.176 2.794.981 2.664-.196-.128-.255.042-.132.384.121.34.381.617.575.617.195 0 .259.164.143.365-.114.2-.032.427.186.504.216.078.443.496.502.93.068.49.415.806.923.832.448.027.729-.046.623-.158-.255-.273 4.273-3.667 4.895-3.667.267 0 .485-.177.485-.397 0-.219.155-.353.346-.298.19.054.622-.259.958-.697.338-.437.488-.527.334-.198-.151.328.197.101.776-.506.579-.606 1.446-1.207 1.927-1.335.479-.13.872-.355.872-.504 0-.147.502-.586 1.117-.974s1.117-.598 1.117-.468.361-.122.8-.559c.442-.44.944-.705 1.117-.59.174.114.317.009.317-.235 0-.245.168-.334.371-.199.206.134.374.059.374-.166 0-.359 1.721-1.53 2.509-1.703.156-.037.506-.302.778-.594.273-.29.65-.428.838-.302.187.124.343.057.343-.147 0-.372 4.977-3.334 5.442-3.238.134.028.348-.119.473-.327.354-.59 3.273-2.072 3.532-1.795.129.138.232.046.232-.202 0-.258.266-.344.62-.199.37.153.528.094.388-.145-.289-.5 2.248-1.835 2.799-1.47.243.16.297.08.136-.199-.174-.3.136-.55.881-.708.632-.136 1.242-.405 1.354-.6.111-.193.36-.25.551-.124.189.126.347.069.347-.128 0-.487 1.831-1.346 2.264-1.062.191.126.436-.021.547-.326.109-.306.443-.587.742-.623.298-.036.786-.095 1.084-.132.299-.036.456-.215.351-.397-.183-.317 0-.401 1.061-.491.256-.022.552-.164.66-.313.355-.502 6.426-3.087 6.748-2.874.175.115.318.041.318-.168 0-.387 1.777-1.061 2.386-.907.186.048.445-.097.575-.322.129-.224.563-.462.966-.529.4-.067.936-.262 1.193-.432.256-.17.633-.2.837-.065.205.136.373.086.373-.111 0-.345 2.002-1.18 3.537-1.476.409-.078.828-.177.931-.219.102-.042.338-.048.524-.01s.443-.114.574-.338c.128-.223.761-.449 1.404-.502.644-.052 1.096-.22 1.008-.374-.173-.298 2.683-.961 3.471-.806.255.051.465-.115.465-.365 0-.252.232-.365.512-.248.283.116.667.048.851-.151.186-.198.844-.42 1.46-.491.615-.072 1.319-.263 1.56-.422.244-.16 1.007-.345 1.696-.412.692-.065 1.407-.204 1.591-.306.184-.101.586-.168.894-.147.307.023.656-.109.775-.288.12-.181.983-.365 1.92-.411.934-.045 1.633-.2 1.549-.345-.162-.283 4.718-1.136 6.831-1.194.463-.011.731-.2.602-.424-.148-.255.329-.345 1.301-.246.845.086 1.58.027 1.632-.134.053-.16.959-.343 2.014-.408 1.054-.065 1.83-.268 1.725-.453-.106-.185.832-.275 2.085-.198 1.265.076 2.332-.037 2.399-.251.066-.211 1.483-.391 3.149-.397 1.665-.005 2.741-.124 2.393-.261-.351-.136 1.236-.262 3.526-.279l4.162-.031.229 1.108c.125.609.223 1.72.22 2.467-.006.749.089 2.881.209 4.741.302 4.69.328 24.139.037 28.246-.375 5.286-.575 7.629-.795 9.349-.113.875-.2 2.279-.195 3.119.005.838-.125 1.438-.288 1.331-.162-.109-.325.548-.362 1.457-.038.909-.09 2.144-.118 2.746-.029.601-.179 1.094-.335 1.094-.155 0-.209.536-.118 1.193.09.657.018 1.194-.159 1.194-.177.002-.366.672-.42 1.493-.055.819-.239 1.541-.411 1.604-.171.061-.236.54-.143 1.064.095.523-.048 1.636-.316 2.472-.268.837-.516 1.656-.55 1.82s-.099.344-.142.397c-.042.056-.137.718-.209 1.473-.071.754-.291 1.739-.488 2.188-.196.449-.554 1.845-.795 3.103-.239 1.258-.604 2.288-.808 2.288-.209 0-.261.37-.119.846.184.62.126.763-.218.534-.31-.204-.378-.149-.199.159.318.552-1.925 8.008-2.409 8.008-.182 0-.234.27-.116.598s.011.596-.238.596c-.248 0-.355.267-.237.597.117.327.087.596-.068.596-.154 0-.308.388-.342.86-.034.473-.195.964-.357 1.094-.165.13-.354.502-.42.83-.066.329-.266.653-.445.722-.177.069-.231.382-.118.697.112.313.011.571-.229.571-.239 0-.331.18-.204.397.127.22.043.399-.186.399-.228 0-.321.165-.203.367.264.46-.542 2.417-.996 2.417-.184 0-.239.165-.123.367.116.201 0 .607-.257.903-.258.296-.524.802-.592 1.123s-.298.699-.513.84c-.214.144-.259.485-.098.762.189.329.141.405-.139.22-.27-.178-.429.011-.429.508 0 .435-.265 1.071-.587 1.415-.321.343-.479.626-.348.626.13 0-.139.716-.601 1.591-.459.874-.983 1.59-1.161 1.59-.181 0-.224.18-.097.399.127.218.043.398-.186.398-.228 0-.323.16-.211.357.115.194-.042.458-.35.582-.305.126-.556.581-.556 1.008 0 .43-.293 1.095-.652 1.476-.357.384-.654.799-.658.925-.021.668-1.487 2.734-1.794 2.53-.198-.13-.247-.038-.104.206.142.244-.071.794-.47 1.222-.4.428-.63.882-.511 1.008.12.128.022.233-.216.233-.239 0-.438.224-.443.497-.006.275-.354.945-.778 1.493-.421.546-.643.743-.491.435.188-.381.13-.464-.179-.257-.25.164-.366.395-.257.51.355.38-.547 1.728-.969 1.449-.248-.164-.305-.09-.146.187.146.254.078.46-.15.46-.229 0-.329.151-.224.334.106.184-.606 1.257-1.583 2.387-.976 1.129-1.695 2.053-1.594 2.053.098 0-.21.441-.685.982-.474.54-1.006.887-1.181.773-.175-.117-.318.069-.318.41 0 .34-.177.619-.395.619-.217 0-.31.147-.204.329.275.475-5.896 6.916-6.275 6.547-.177-.171-.211-.107-.077.142.133.25-.134.725-.593 1.056-.458.33-1.748 1.514-2.865 2.629s-2.18 2.028-2.364 2.028c-.183 0-.813.55-1.401 1.224-.631.722-1.251 1.104-1.511.934-.278-.183-.341-.12-.173.17.154.267-.018.575-.407.729-.372.147-.796.459-.942.693-.149.235-.567.428-.931.428-.367 0-.665.22-.665.489 0 .537-1.668 1.942-1.687 1.423-.006-.178-.183-.008-.39.374-.209.384-.624.697-.92.697-.297 0-.54.179-.54.397 0 .22-.252.399-.558.399-.307 0-.559.189-.559.42 0 .233-.157.319-.35.191-.192-.126-.485.015-.651.317-.413.747-3.424 2.727-3.787 2.488-.161-.107-.577.163-.927.6-.349.435-.797.683-.998.552-.198-.132-.361-.054-.361.174 0 .443-2.848 2.159-3.644 2.197-.262.012-.597.224-.743.468-.345.577-3.85 2.444-8.085 4.31-1.845.814-3.651 1.646-4.02 1.854-.366.208-.852.256-1.081.105-.25-.166-.309-.093-.148.185.246.428-.272.617-1.548.568-.255-.012-.465.15-.465.357 0 .208-.153.277-.341.152-.186-.124-.397-.049-.465.165-.067.214-.459.446-.868.519-.411.071-1.122.351-1.584.623-.461.269-.838.374-.838.229 0-.143-.209-.084-.464.133-.447.379-2.821 1.293-3.746 1.444-.243.04-.638.202-.874.361-.238.158-.728.168-1.087.019-.445-.181-.566-.118-.382.199.245.424-.606.637-2.284.572-.254-.009-.37.142-.258.337.113.192-.1.38-.47.412-1.027.094-1.331.176-2.466.674-1.322.579-1.322.579-1.222-.149.046-.334.239-.613.432-.62.191-.008.474-.371.626-.81s.432-.695.623-.567c.193.126.463-.176.603-.67.318-1.127 2.416-3.529 2.838-3.251.171.115.312-.061.312-.389 0-.33.31-.833.687-1.119.377-.285.754-.724.838-.974s.943-1.413 1.914-2.585c.969-1.173 3.17-4.045 4.893-6.384 1.725-2.337 3.262-4.128 3.419-3.978.156.151.177.073.045-.173-.131-.247.177-.927.684-1.513.51-.586.924-1.147.924-1.247 0-.5 2.356-3.542 2.67-3.446.2.059.245-.1.097-.354-.152-.263.116-.796.623-1.237.492-.428.642-.659.335-.514-.363.17-.329.063.093-.307.357-.313.65-.695.65-.846 0-.623 1.764-2.992 2.023-2.717.156.162.24.026.188-.302-.141-.898.42-2.018.865-1.726.214.143.293.089.175-.115-.295-.51 2.118-4.621 2.484-4.235.161.17.243.04.181-.289-.125-.653.673-2.429 1.281-2.852.211-.147.425-.566.475-.93.05-.365.356-.974.678-1.356.323-.38.586-.901.586-1.159 0-.256.168-.466.373-.466.204 0 .338-.134.299-.298-.131-.523.482-2.089.817-2.089.177 0 .379-.403.45-.894.07-.492.345-.846.611-.786.267.061.388-.058.27-.262-.3-.519.165-1.68.567-1.415.18.118.237-.038.125-.35-.111-.311.016-.817.284-1.124.268-.308.541-.821.608-1.146.066-.323.277-.647.468-.72.189-.072.259-.282.153-.466-.105-.181.074-.615.397-.96.324-.346.479-.628.345-.628-.132 0 .104-.6.527-1.331.424-.734.662-1.45.528-1.593-.134-.141-.038-.26.212-.26.252 0 .365-.16.25-.355-.112-.197.043-.458.345-.582.313-.128.456-.489.331-.837-.122-.336-.025-.613.214-.613.238 0 .338-.166.22-.37-.118-.202-.041-.483.17-.623.211-.141.288-.422.17-.624-.118-.204-.036-.37.18-.37.217 0 .367-.136.333-.3-.125-.613.529-2.486.868-2.486.195 0 .259-.165.143-.365-.116-.203.061-.657.395-1.014.333-.357.502-.76.374-.896-.127-.135.025-.664.338-1.174.311-.51.459-.926.327-.926-.133 0-.072-.226.134-.499.207-.273.493-1.08.634-1.793.143-.712.399-1.205.568-1.094.168.113.218-.155.111-.592-.12-.491-.011-.796.284-.796.263 0 .381-.105.261-.231-.173-.185.688-3.33 1.761-6.437.094-.277.135-.558.091-.625-.047-.068.223-.452.597-.851.373-.399.6-1.052.504-1.448-.227-.93.638-3.637 1.036-3.242.166.166.193-.191.059-.793-.152-.672-.093-1.094.149-1.094.218 0 .35-.223.294-.496-.178-.867.912-5.055 1.259-4.828.18.121.225-.223.098-.765-.127-.541-.057-1.098.155-1.24.213-.139.299-.498.192-.798-.108-.3-.015-.664.209-.809.221-.147.327-.399.234-.56-.093-.16.334-2.878.951-6.04.614-3.16 1.202-6.551 1.308-7.537.105-.985.28-2.058.391-2.387.111-.328.249-1.044.306-1.59.057-.548.23-1.801.388-2.786.155-.984.262-2.238.237-2.784-.025-.547.12-1.902.324-3.01.205-1.109.388-2.855.407-3.88.018-1.024.193-1.862.388-1.862.193 0 .304-.493.245-1.094-.059-.603.039-1.346.216-1.654.227-.393.188-.469-.134-.257-.354.234-.402-.533-.214-3.419.609-9.44.757-9.045-2.942-7.913-1.41.434-2.709.692-2.884.577-.176-.116-.32-.044-.32.158 0 .203-.796.589-1.768.856-.974.267-2.103.626-2.513.796-.411.17-1.833.76-3.163 1.31-2.822 1.167-3.431 3.424-3.338 12.342.009.826-.095 1.695-.231 1.93-.229.395-.45 2.927-.495 5.641-.011.617-.139 1.327-.286 1.581-.272.47-.302.737-.423 3.789-.038.943-.195 1.63-.349 1.529s-.3.382-.325 1.071c-.025.69-.138 1.614-.25 2.051-.113.437-.218 1.388-.235 2.112-.016.798-.178 1.216-.412 1.062-.243-.161-.32.132-.209.788.098.573-.051 1.736-.331 2.582-.279.846-.42 1.633-.313 1.747.107.115.057.445-.111.734-.311.53-.464 1.153-.598 2.411-.04.384-.215.697-.388.697-.174 0-.22.166-.102.371.118.204.041.485-.17.624-.211.14-.297.405-.191.588.275.476-.617 4.388-.951 4.169-.154-.101-.195.155-.095.569.102.412.009.865-.203 1.006-.215.142-.284.55-.156.907.156.43.088.554-.198.365-.27-.179-.358-.08-.234.264.109.301-.004 1.071-.249 1.71-.245.64-.514 1.606-.598 2.151-.083.542-.322 1.1-.531 1.237-.209.138-.349.37-.308.516.04.147-.048.662-.194 1.149-.147.487-.251 1.018-.227 1.182.021.164-.127.298-.333.298-.205 0-.372.348-.372.773 0 .424-.171.885-.378 1.022-.209.137-.295.395-.192.575.274.473-.554 2.803-.995 2.803-.207 0-.288.248-.179.55.109.304-.034.907-.32 1.34-.284.434-.411.902-.28 1.041.128.138.075.25-.122.25-.195 0-.382.392-.416.869-.032.477-.304 1.014-.602 1.194-.299.177-.462.655-.361 1.059.098.407-.097 1.033-.435 1.394s-.507.657-.377.657c.131 0-.087.67-.482 1.492-.397.821-.951 2.028-1.234 2.684-.282.657-.682 1.326-.888 1.486-.211.166-.221.296-.021.298.193.004.025.288-.372.634-.398.344-.515.512-.257.374.659-.357.577-.069-.281.987-.409.506-.743 1.234-.743 1.62 0 .385-.127.762-.281.834-.154.073-.681 1.066-1.174 2.208-.492 1.14-1.037 1.98-1.21 1.865-.173-.114-.315.147-.315.583 0 .435-.262 1.073-.584 1.416-.322.344-.449.627-.281.631.168.003.14.137-.066.297-.203.163-.791 1.156-1.303 2.21-.511 1.054-1.213 2.244-1.56 2.643-.345.399-.53.83-.411.958.118.128-.059.344-.393.481-.336.138-.533.384-.44.547.095.164-.198.721-.652 1.243-.454.519-.84 1.038-.858 1.153-.118.77-.681 1.6-1.083 1.6-.262 0-.454.313-.425.697.028.382-.152.653-.4.602-.261-.056-.363.154-.242.494.12.333-.046.693-.382.833-.327.134-.51.391-.406.573.106.179-.184.609-.643.953-.458.341-.67.628-.472.635.2.008.095.232-.232.497-.329.267-.583.575-.567.684.075.496-1.172 1.953-1.446 1.688-.168-.163-.193-.086-.055.17.137.255-.325 1.117-1.031 1.915-.704.798-1.269 1.573-1.255 1.724.013.149-.332.466-.768.705-.438.238-.703.532-.588.655.114.12-.447.954-1.246 1.85-.799.898-1.389 1.698-1.314 1.78.077.082-.421.676-1.109 1.319-.687.646-1.362 1.486-1.5 1.87-.143.399-.434.574-.683.41-.237-.156-.334-.116-.214.09.118.206-.37 1.085-1.087 1.952-.716.866-1.197 1.351-1.068 1.078.128-.273.144-.498.034-.498-.109 0-.542.718-.962 1.594-.418.877-1.092 1.815-1.496 2.086-.405.269-.736.716-.736.991 0 .277-.252.502-.558.502-.307 0-.518.137-.466.305.163.537-3.156 4.459-3.551 4.198-.209-.138-.275-.069-.147.154.129.224-.359 1.1-1.085 1.952-.725.85-1.197 1.295-1.049.987.177-.367.122-.462-.16-.275-.236.157-.431.476-.431.71 0 .235-.361.762-.801 1.171-.441.409-.666.743-.5.743.164 0 0 .353-.367.787-.366.431-.815.687-.997.567-.182-.121-.3-.073-.263.109.126.603-.496 1.718-.834 1.495-.183-.121-.333.03-.333.336 0 .305-.881 1.421-1.955 2.477-1.076 1.055-1.703 1.779-1.396 1.609.308-.168-.28.598-1.302 1.704-1.024 1.107-2.347 2.642-2.94 3.414-.592.771-1.262 1.289-1.489 1.151-.227-.137-.304-.122-.172.038.133.159-.16.768-.652 1.356-.491.588-1.412 1.74-2.046 2.559-.635.819-1.332 1.375-1.548 1.232-.214-.144-.289-.082-.164.133.125.216-.926 1.587-2.336 3.046s-2.463 2.652-2.34 2.652c.124 0-.164.442-.638.982-.475.54-1.033.871-1.24.735-.205-.137-.272-.069-.143.153.24.414-1.471 2.385-1.916 2.207-.137-.055-.257.124-.266.397-.009.275-.231.449-.493.39-.261-.061-.384.048-.274.241.197.338-1.537 2.356-1.853 2.155-.086-.055-.114.035-.063.199.106.34.395.317 4.747-.365 1.741-.273 4.028-.504 5.085-.513 1.056-.01 1.726-.149 1.49-.31-.238-.16.49-.322 1.618-.359 2.564-.084 2.696-.101 3.22-.452.234-.157.822-.283 1.303-.281.481.004 1.546-.114 2.364-.262.819-.147 2.186-.284 3.037-.305.85-.021 1.474-.16 1.387-.311-.086-.151.139-.268.502-.258.363.009 1.58-.17 2.707-.401 3.65-.751 5.004-.97 6.2-1.014.647-.023 1.083-.202.969-.399-.115-.199.228-.239.781-.092.611.164.986.101.986-.166 0-.237.293-.388.651-.334.359.051 1.306-.109 2.107-.359.799-.248 1.583-.367 1.742-.262s.388.017.511-.195c.122-.21.719-.315 1.328-.232.61.082 1.107-.037 1.107-.262 0-.227.232-.317.512-.202.283.116.672.042.867-.167.351-.374 2.309-.821 3.555-.809.357.004.65-.184.65-.415s.413-.334.921-.231c.534.109.826.027.697-.194-.132-.231.111-.272.616-.1.629.214.765.157.545-.223-.209-.359-.116-.436.313-.26.334.138.712.071.838-.147s.551-.288.942-.155c.393.134.713.073.713-.133 0-.434 2.971-1.322 3.423-1.024.166.109.302-.011.302-.269 0-.271.311-.38.745-.26.409.115.651.046.536-.151-.193-.334.874-.544 1.977-.391.255.036.464-.141.464-.393s.252-.356.56-.229c.305.126.557.036.557-.199s.242-.329.535-.208c.295.12.595.023.67-.218.075-.239.475-.462.888-.494.415-.033 1.382-.379 2.148-.768.769-.39 1.645-.605 1.948-.481.304.124.462.07.351-.121-.109-.191.341-.569 1.004-.838s1.753-.747 2.42-1.062c.668-.313 1.38-.46 1.583-.326.202.133.369.076.369-.126 0-.516 3.72-2.114 4.194-1.801.243.16.275.059.084-.271-.223-.386-.134-.456.332-.265.381.156.547.103.413-.13-.125-.218.002-.394.281-.394.28 0 1.673-.626 3.093-1.392 1.423-.765 2.712-1.392 2.865-1.392.154 0 .62-.366 1.037-.811.418-.445.92-.703 1.117-.573.198.13.359.028.359-.227 0-.275.261-.358.64-.201.352.143.518.13.368-.029-.325-.349 3.108-2.57 3.535-2.287.164.107.297-.004.297-.248 0-.245.169-.335.375-.199.207.137.475-.031.597-.371.123-.341.373-.521.556-.401.184.123.334.052.334-.156 0-.405 4.652-3.647 5.235-3.647.193 0 .35-.18.35-.399 0-.218.252-.398.559-.398.306 0 .558-.208.558-.464s.111-.345.246-.202c.134.145.481-.096.769-.537.289-.439.672-.702.852-.582.181.118.511-.147.733-.59.224-.445.633-.808.91-.808.279 0 .602-.267.72-.596.118-.328.388-.597.599-.597s.693-.313 1.072-.695c.377-.384 1.163-1.054 1.748-1.492.582-.439 1.315-1.109 1.628-1.493.313-.382.783-.695 1.044-.695.262 0 .477-.18.477-.399 0-.218.261-.397.579-.397.32 0 .49-.159.377-.354-.247-.425 2.204-2.503 2.534-2.148.129.136.233-.051.233-.416s.26-.663.58-.663c.319 0 .495-.147.392-.326-.106-.182 1.249-1.837 3.006-3.68 1.758-1.845 3.065-3.101 2.902-2.795-.196.374-.152.465.136.274.236-.154.431-.54.431-.855 0-.317.261-.575.579-.575.32 0 .488-.158.375-.355-.213-.367 1.843-3.034 4.445-5.763.818-.859 1.251-1.417.959-1.237-.323.198-.25-.071.186-.693.393-.56.846-.934 1.005-.831.157.103.243.04.187-.141-.162-.539 1.055-2.137 1.385-1.816.168.162.186.072.04-.199-.156-.29.159-.949.761-1.593.565-.603 1.012-1.185.996-1.294-.077-.468.9-1.56 1.152-1.291.154.162.243.116.202-.103-.166-.888.038-1.423.443-1.155.242.16.331.11.204-.109-.227-.392 1.374-3.248 2.13-3.802.222-.161.274-.294.117-.298-.299-.006 1.538-3.21 2.082-3.63.173-.134.321-.403.33-.598.034-.764.386-1.333.699-1.125.182.119.231-.059.109-.397-.129-.361.025-.714.375-.859.327-.134.503-.403.388-.6-.112-.194-.018-.355.211-.355s.313-.179.186-.399c-.127-.218-.043-.397.186-.397s.322-.164.205-.367c-.116-.2.054-.647.377-.993.324-.345.481-.63.349-.63-.131 0-.018-.261.254-.582 1.224-1.451 1.446-1.837 1.251-2.175-.115-.199.057-.644.38-.989.324-.346.487-.629.363-.629-.125 0-.019-.402.234-.895.254-.493.503-1.161.553-1.486.048-.322.268-.651.484-.729.218-.077.3-.304.186-.504-.116-.201-.034-.365.182-.365.218 0 .361-.134.32-.298-.141-.552.965-3.282 1.33-3.282.196 0 .261-.105.141-.233-.297-.317.459-2.552.863-2.552.179 0 .236-.246.129-.546-.109-.299.035-.792.32-1.096.284-.303.439-.8.344-1.102-.092-.301-.023-.452.158-.332.18.119.352-.219.38-.75.031-.531.277-1.249.547-1.599.272-.347.51-.926.529-1.283.082-1.522.663-3.208 1.023-2.971.216.145.271.061.126-.191-.143-.244.183-1.839.721-3.542s1.031-3.365 1.095-3.693c.381-1.936.704-3.04 1.015-3.464.195-.264.245-.667.113-.896-.131-.227-.045-.414.195-.414.239 0 .337-.269.22-.598-.118-.328-.076-.595.094-.595s.224-.476.12-1.055c-.122-.681-.048-.962.206-.794.244.162.355-.116.291-.735-.056-.548 0-.999.127-.999.125-.002.268-.746.316-1.655s.332-2.049.629-2.532c.297-.485.447-1.261.334-1.723-.112-.462-.078-1.155.079-1.541.155-.387.248-1.088.205-1.56-.042-.472.093-.97.301-1.107.209-.138.284-.512.168-.833-.115-.321-.086-.898.066-1.281.393-.995.842-4.467.91-7.06.012-.439.198-1.738.416-2.885.216-1.15.393-3.075.393-4.278s.127-2.186.282-2.186c.158 0 .288-1.029.294-2.288.019-4.164.053-27.3.046-30.092-.005-1.696-.13-2.53-.329-2.187-.198.344-.313-.345-.302-1.835.009-1.311-.095-3.013-.232-3.779-.232-1.306-.367-2.555-.71-6.654-.077-.925-.343-2.582-.589-3.684-.249-1.102-.356-2.27-.238-2.595.116-.326.039-.592-.172-.592s-.352-.313-.312-.697c.309-2.994-.585-3.666-4.895-3.674-1.554-.004-2.93-.118-3.058-.254-.31-.332-13.07-.343-13.57-.015-.215.141-1.705.277-3.316.3-6.158.09-7.139.154-6.966.454.098.17-.377.296-1.054.281-.679-.013-2.311.166-3.628.401-1.316.235-2.719.317-3.117.181-.399-.135-.631-.084-.517.115.177.305-1.547.685-6.857 1.512-.49.077-1.31.264-1.821.415-.513.151-1.274.311-1.694.355-.42.046-.976.223-1.235.393-.259.172-.572.206-.692.077-.121-.13-.418-.06-.659.154-.242.214-1.037.438-1.768.495-.729.057-1.262.217-1.181.357.225.389-2.222.701-2.593.328-.179-.179-.347-.947-.372-1.709-.025-.76-.197-1.283-.379-1.161-.189.124-.248-.605-.134-1.684.111-1.046.068-1.673-.095-1.392-.173.3-.311-.294-.33-1.438-.042-2.286-.142-2.965-.537-3.639-.159-.274-.357-1.436-.439-2.586s-.177-2.089-.213-2.089c-.034 0-.116-.359-.18-.796-.066-.438-.286-1.503-.488-2.366-.204-.863-.283-1.721-.174-1.906.108-.187-.005-.598-.252-.913-.244-.315-.35-.84-.234-1.163.116-.324.063-.689-.121-.809-.183-.121-.27-.575-.191-1.007.078-.433-.008-.788-.188-.788-.181 0-.259-.394-.172-.875.088-.483-.016-.993-.23-1.132-.213-.141-.42-.911-.458-1.709-.039-.798-.175-1.453-.302-1.453-.128-.002-.361-.762-.518-1.692s-.336-1.872-.399-2.089c-.06-.22-.214-.846-.341-1.392-.327-1.417-.413-1.707-.722-2.467-.152-.373-.175-.85-.054-1.062.122-.21.043-.445-.173-.523-.218-.077-.429-.791-.468-1.585-.04-.795-.199-1.362-.352-1.262-.154.101-.304-.142-.336-.537-.082-1.041-.166-1.432-.477-2.192-.152-.373-.152-.894 0-1.157.187-.325.119-.373-.217-.153-.354.235-.429.147-.264-.309.125-.35.055-.699-.157-.774-.213-.076-.413-.624-.445-1.22-.033-.594-.156-1.081-.276-1.081-.119 0-.236-.225-.257-.498-.072-.879-.284-1.677-.583-2.189-.159-.273-.186-.676-.059-.893.125-.22.086-.399-.087-.399-.175 0-.62-1.03-.99-2.288-.37-1.256-.91-2.881-1.199-3.607-.292-.726-.442-1.472-.335-1.658.108-.183.02-.399-.196-.475-.215-.076-.438-.617-.497-1.203-.057-.5863-.324-1.3444-.588-1.6862-.265-.3399-.368-.6186-.229-.6186.14 0 .006-.3801-.298-.8422s-.463-1.0884-.354-1.392.012-.5519-.215-.5519-.386-.1336-.353-.2979c.032-.1642-.22-.9643-.56-1.7777-.338-.8135-.615-1.7416-.615-2.0643s-.16-.6912-.357-.8211c-.195-.1298-.261-.4984-.145-.8192.115-.3208.023-.5843-.204-.5843s-.375-.1337-.332-.2979-.152-.7466-.436-1.2927c-.282-.548-.483-1.0426-.443-1.098.039-.0573-.188-.6378-.502-1.2889-.317-.6531-.562-1.2317-.544-1.289.016-.0573-.3-.8917-.704-1.8561-.404-.9643-.638-2.0374-.522-2.3869.116-.3494.075-.5022-.093-.3399s-.529.0955-.804-.1489c-.282-.2502-.499-.275-.499-.0592zm-267.0366 96.7579c.6737-.001 1.4047.117 1.6245.26.4629.308 3.0007.628 4.5484.577.5862-.021 1.2564.114 1.4887.302.2323.185.924.368 1.5387.408.6148.038 1.5352.178 2.0481.308.5112.128 1.6675.299 2.57.378.9025.078 1.8032.317 2.0002.527.198.212.563.301.809.2.247-.101.938.033 1.537.294.599.264 1.316.438 1.593.388s.779.034 1.117.187c.336.151.947.323 1.358.38.409.057 1.163.21 1.674.34s1.434.349 2.048.489c.615.139 1.452.443 1.863.676.409.235 1.163.437 1.674.45l.931.027.045 10.144c.027 5.579.179 11.845.341 13.924.161 2.079.351 4.764.419 5.967s.28 3.464.47 5.022c.189 1.561.296 3.306.237 3.879-.059.574.029 1.044.193 1.044.165 0 .297.583.295 1.293-.002.712.166 2.234.374 3.386.205 1.149.311 2.448.232 2.883-.079.437-.002.792.172.792.261 0 .484 1.244.966 5.372.027.218.16.846.295 1.392.136.546.302 1.352.369 1.791.067.437.325 1.564.575 2.506.25.939.343 2.081.209 2.535-.136.455-.096.728.088.608.182-.123.352.08.375.446.023.367.327 1.473.676 2.458.346.983.655 2.442.688 3.241.03.798.193 1.361.359 1.252.168-.109.266.044.22.34-.047.296.123 1.073.378 1.73.254.657.51 1.553.569 1.99.057.437.307 1.333.556 1.99.246.655.491 1.55.543 1.987.05.438.289 1.301.531 1.916.239.616.436 1.384.436 1.705 0 .323.266 1.018.591 1.549.326.529.483 1.149.351 1.378-.133.228-.095.415.085.415.392 0 2.147 5.085 2.09 6.057-.022.378.071.615.207.525.27-.178 2.132 4.571 1.982 5.054-.052.165.07.298.268.298s.264.27.147.598c-.118.326-.02.596.219.596.238 0 .34.164.224.364-.116.199-.032.426.184.505.218.076.436.404.486.729s.286.968.525 1.432c.238.464.327.957.199 1.094-.129.138-.066.252.139.252.518 0 1.305 1.952 1.001 2.477-.139.239-.077.317.138.174.35-.229.986 1.083.886 1.823-.023.165.145.3.372.3.225 0 .311.277.189.617-.121.34-.082.525.09.412.314-.208 1.998 3.245 1.903 3.9-.029.193.096.462.279.596.584.429 1.924 3.534 1.662 3.847-.14.166-.059.184.18.037.274-.169.597.254.867 1.13.238.768.545 1.396.683 1.398.137.002.539.546.893 1.212.374.701.452 1.089.188.923-.252-.157.009.223.579.847.624.68.951 1.379.819 1.748-.122.338-.095.481.057.317.343-.367 3.113 4.212 3.113 5.146 0 .372.111.559.245.416.375-.401 1.324 1.259 1.022 1.784-.164.282-.102.349.164.173.39-.257.603.239.465 1.087-.03.179.1.225.288.101.188-.122.613.222.949.768.334.544.5.991.372.991-.131 0 .159.37.641.825.485.454.629.714.322.578-.308-.135-.182.052.279.417.461.364.838 1.029.838 1.476 0 .449.109.697.243.554.27-.289 2.6 2.921 2.459 3.389-.048.162.245.485.652.718.408.233.74.68.74.993s.336.76.746.995c.409.235.745.767.745 1.184 0 .416.193.886.429 1.042.284.187.336.094.153-.275-.152-.307.061-.116.472.424.411.541.653 1.152.535 1.354-.118.204-.02.243.218.086.241-.16.53-.01.657.342.124.344.81 1.295 1.525 2.114.715.817 1.66 1.934 2.103 2.48.442.548 1.473 1.782 2.29 2.744.816.963 1.249 1.606.961 1.43-.35-.213-.436-.166-.257.142.146.252.507.458.802.458s.536.166.536.367c0 .2.922 1.306 2.048 2.453 1.822 1.858 2.849 3.732 1.582 2.884-.49-.329-.688-.374-2.069-.472-.472-.032-.781-.195-.687-.359.095-.164-.189-.332-.631-.374-1.758-.166-3.202-.628-3.009-.962.112-.193-.1-.317-.47-.274-.912.109-4.211-.893-4.211-1.277 0-.17-.259-.416-.577-.546-.393-.161-.49-.078-.3.256.182.326.064.309-.354-.054-.347-.3-.629-.427-.629-.284 0 .145-.377.04-.838-.229-.462-.272-1.166-.55-1.566-.621-.402-.071-.84-.319-.974-.552-.134-.231-.352-.391-.488-.357-.62.164-2.448-.498-2.262-.819.114-.199-.034-.262-.331-.14-.299.123-.651.031-.786-.204-.136-.233-.581-.424-.991-.424-.409 0-.65-.162-.536-.361.115-.198-.125-.267-.532-.154-.461.129-.824-.025-.962-.409-.121-.34-.438-.529-.702-.42-.263.107-.745-.09-1.072-.437-.326-.35-.683-.629-.792-.621-1.031.074-1.326-.046-1.096-.445.161-.279.102-.351-.148-.185-.363.239-6.285-2.631-6.775-3.285-.102-.135-.815-.557-1.582-.937-.768-.38-1.397-.882-1.397-1.117s-.142-.334-.315-.22c-.384.254-7.504-4.31-8.155-5.228-.255-.361-.466-.5-.466-.311s-.377-.018-.837-.461c-.461-.443-1.142-.92-1.513-1.061-.392-.149-.563-.449-.408-.718.152-.262.106-.355-.107-.214-.443.292-2.541-1.268-3.783-2.813-.485-.599-.765-.823-.626-.494.223.521.193.521-.238-.006-.271-.331-.954-.917-1.517-1.303-.563-.383-1.024-.973-1.024-1.309 0-.337-.175-.495-.391-.354-.215.143-1.244-.653-2.288-1.766-1.042-1.113-2.007-2.026-2.145-2.026-.516 0-2.248-2.257-1.976-2.578.157-.183.087-.212-.156-.065-.438.269-1.033-.38-1.043-1.136-.002-.218-.21-.397-.458-.397-.49 0-5.319-5.481-5.319-6.036 0-.186-.334-.562-.745-.835-.409-.273-.743-.756-.743-1.075s-.349-.779-.774-1.021c-.443-.254-.686-.686-.57-1.009.112-.317-.018-.567-.2987-.567-.2752 0-.7309-.303-1.0115-.672-.4397-.58-.4343-.632.0465-.369.3073.167.0982-.082-.4665-.555-.5647-.474-.9311-1.024-.8167-1.222.1161-.201.0411-.365-.1662-.365-.4915 0-2.6844-3.407-2.3913-3.718.1233-.134-.05-.353-.3842-.491-.336-.137-.5183-.41-.4039-.605.1126-.197.0179-.357-.2109-.357s-.3128-.18-.1841-.401c.1269-.22-.0304-.508-.3503-.64-.3199-.13-.5826-.487-.5826-.792 0-.304-.168-.554-.3717-.554-.2055 0-.3735-.246-.3735-.548s-.2484-.77-.5541-1.039c-.3038-.271-.4628-.651-.3502-.846.1126-.193.016-.351-.2127-.351-.2288 0-.3306-.147-.227-.329.1037-.179-.1447-.632-.5522-1.004s-.6398-.852-.5165-1.065c.1233-.212.0179-.388-.2323-.388-.252 0-.345-.118-.2074-.266.1359-.147-.0286-.593-.3681-.994-.3396-.401-.4754-.728-.302-.728.1733 0 .0411-.225-.2949-.498-.3342-.273-.6595-.762-.722-1.085-.0626-.323-.3253-.829-.5827-1.125-.2573-.298-.3663-.718-.2412-.935.1269-.216-.1037-.785-.5112-1.261-.6469-.754-1.4351-2.642-1.2403-2.967.0376-.063-.1912-.392-.5075-.73-.3163-.337-.4879-.765-.3789-.952.1072-.186.0215-.453-.1894-.592-.2109-.14-.2878-.42-.1698-.625.1179-.202.0268-.37-.202-.37-.2287 0-.3217-.162-.2055-.363.1144-.2.025-.43-.2001-.51-.2234-.08-.4343-.615-.4665-1.189-.0322-.573-.1841-.961-.3378-.86s-.3002-.095-.327-.435c-.0697-.945-.1305-1.15-.6041-2.061-.2413-.464-.3253-.966-.1841-1.115.1394-.151.034-.418-.2359-.597-.2698-.178-.5165-.795-.5468-1.37-.0322-.576-.2109-1.046-.3986-1.048-.1876 0-.2466-.101-.1287-.227.1162-.124-.0107-.684-.2806-1.241-.2716-.56-.3949-1.293-.2734-1.629.1376-.388.0679-.512-.193-.34-.2449.16-.4093-.015-.4039-.432.0054-.387-.2484-1.42-.5648-2.297-.3163-.874-.5808-2.047-.5915-2.604-.0089-.56-.1698-1.186-.3574-1.394-.1877-.207-.4272-.915-.5344-1.57-.1054-.657-.3646-1.803-.5773-2.544-.2126-.742-.3056-1.491-.2055-1.663.1001-.174.0304-.414-.1537-.536-.1841-.121-.445-1.001-.579-1.954-.1323-.953-.3467-2.253-.4754-2.889-.1269-.636-.2466-1.694-.2645-2.349-.0179-.657-.143-1.283-.277-1.394-.1341-.108-.336-1.004-.4468-1.989-.1108-.984-.2895-2.147-.395-2.584-.2198-.917-.6362-4.802-.772-7.214-.0501-.905-.1734-1.799-.2735-1.99-.1-.189-.1983-1.329-.2162-2.532-.0197-1.205-.1644-3.441-.3217-4.972-.386-3.72-.3396-23.396.0643-27.651.177-1.86.2878-4.141.2485-5.071-.0394-.93.0822-1.69.2698-1.69.1877 0 .2574-.346.1537-.766-.1787-.733.034-.758 5.3419-.607 3.0399.088 6.0781.156 6.7519.154z" fill-rule="evenodd"/><path d="m69.84 438v-55.152h.072l26.856 38.088 27.504-38.088h.144v55.152h-10.44v-25.272l-17.28 24.552h-.144l-16.632-22.968v23.688zm65.033-26.424c0-3.648.696-7.104 2.088-10.368s3.312-6.144 5.76-8.64c2.496-2.544 5.376-4.536 8.64-5.976s6.768-2.16 10.512-2.16c3.696 0 7.176.72 10.44 2.16s6.144 3.432 8.64 5.976c2.544 2.496 4.512 5.376 5.904 8.64 1.44 3.264 2.16 6.72 2.16 10.368 0 3.744-.72 7.248-2.16 10.512-1.392 3.264-3.36 6.144-5.904 8.64-2.496 2.448-5.376 4.368-8.64 5.76s-6.744 2.088-10.44 2.088c-3.744 0-7.248-.696-10.512-2.088s-6.144-3.312-8.64-5.76c-2.448-2.496-4.368-5.376-5.76-8.64s-2.088-6.768-2.088-10.512zm10.8 0c0 3.12.72 5.976 2.16 8.568 1.488 2.544 3.48 4.584 5.976 6.12 2.496 1.488 5.304 2.232 8.424 2.232 3.024 0 5.736-.744 8.136-2.232 2.448-1.536 4.368-3.576 5.76-6.12 1.392-2.592 2.088-5.448 2.088-8.568 0-3.216-.72-6.096-2.16-8.64-1.44-2.592-3.384-4.632-5.832-6.12-2.448-1.536-5.208-2.304-8.28-2.304s-5.832.768-8.28 2.304c-2.448 1.488-4.392 3.528-5.832 6.12-1.44 2.544-2.16 5.424-2.16 8.64zm101.201 28.584-37.08-33.48.216 31.32h-10.584v-55.08h.432l37.008 33.984-.216-31.896h10.512v55.152zm13.935-55.152h10.44v52.992h-10.44zm34.701 18.864-.288 2.664 1.584-2.016 17.28-19.512h13.536l-21.888 23.76 21.96 29.232h-13.248l-16.344-22.608-2.592 2.592v20.016h-10.584v-52.992h10.584zm34.135 34.128 23.904-55.08h.576l23.904 55.08h-12.096l-4.104-10.368h-17.568l-4.32 10.368zm18.288-19.152h10.44l-5.112-12.888zm82.389-33.84v52.992h-10.44v-21.528h-23.688v21.528h-10.44v-52.992h10.44v21.384h23.688v-21.384z"/></g></svg>